<?xml version="1.0" encoding="utf-8" standalone="no"?>
<!DOCTYPE svg PUBLIC "-//W3C//DTD SVG 1.1//EN"
  "http://www.w3.org/Graphics/SVG/1.1/DTD/svg11.dtd">
<svg xmlns:xlink="http://www.w3.org/1999/xlink" width="864pt" height="432pt" viewBox="0 0 864 432" xmlns="http://www.w3.org/2000/svg" version="1.1">
 <metadata>
  <rdf:RDF xmlns:dc="http://purl.org/dc/elements/1.1/" xmlns:cc="http://creativecommons.org/ns#" xmlns:rdf="http://www.w3.org/1999/02/22-rdf-syntax-ns#">
   <cc:Work>
    <dc:type rdf:resource="http://purl.org/dc/dcmitype/StillImage"/>
    <dc:date>2025-07-07T09:45:40.875852</dc:date>
    <dc:format>image/svg+xml</dc:format>
    <dc:creator>
     <cc:Agent>
      <dc:title>Matplotlib v3.10.3, https://matplotlib.org/</dc:title>
     </cc:Agent>
    </dc:creator>
   </cc:Work>
  </rdf:RDF>
 </metadata>
 <defs>
  <style type="text/css">*{stroke-linejoin: round; stroke-linecap: butt}</style>
 </defs>
 <g id="figure_1">
  <g id="patch_1">
   <path d="M 0 432 
L 864 432 
L 864 0 
L 0 0 
z
" style="fill: #ffffff"/>
  </g>
  <g id="axes_1">
   <g id="patch_2">
    <path d="M 108 384.48 
L 412.363636 384.48 
L 412.363636 51.84 
L 108 51.84 
z
" style="fill: #ffffff"/>
   </g>
   <g id="matplotlib.axis_1">
    <g id="xtick_1">
     <g id="line2d_1">
      <defs>
       <path id="m44e83d3164" d="M 0 0 
L 0 3.5 
" style="stroke: #000000; stroke-width: 0.8"/>
      </defs>
      <g>
       <use xlink:href="#m44e83d3164" x="121.834711" y="384.48" style="stroke: #000000; stroke-width: 0.8"/>
      </g>
     </g>
     <g id="text_1">
      <!-- 0 -->
      <g transform="translate(118.653461 399.078438) scale(0.1 -0.1)">
       <defs>
        <path id="DejaVuSans-30" d="M 2034 4250 
Q 1547 4250 1301 3770 
Q 1056 3291 1056 2328 
Q 1056 1369 1301 889 
Q 1547 409 2034 409 
Q 2525 409 2770 889 
Q 3016 1369 3016 2328 
Q 3016 3291 2770 3770 
Q 2525 4250 2034 4250 
z
M 2034 4750 
Q 2819 4750 3233 4129 
Q 3647 3509 3647 2328 
Q 3647 1150 3233 529 
Q 2819 -91 2034 -91 
Q 1250 -91 836 529 
Q 422 1150 422 2328 
Q 422 3509 836 4129 
Q 1250 4750 2034 4750 
z
" transform="scale(0.015625)"/>
       </defs>
       <use xlink:href="#DejaVuSans-30"/>
      </g>
     </g>
    </g>
    <g id="xtick_2">
     <g id="line2d_2">
      <g>
       <use xlink:href="#m44e83d3164" x="175.250582" y="384.48" style="stroke: #000000; stroke-width: 0.8"/>
      </g>
     </g>
     <g id="text_2">
      <!-- 50 -->
      <g transform="translate(168.888082 399.078438) scale(0.1 -0.1)">
       <defs>
        <path id="DejaVuSans-35" d="M 691 4666 
L 3169 4666 
L 3169 4134 
L 1269 4134 
L 1269 2991 
Q 1406 3038 1543 3061 
Q 1681 3084 1819 3084 
Q 2600 3084 3056 2656 
Q 3513 2228 3513 1497 
Q 3513 744 3044 326 
Q 2575 -91 1722 -91 
Q 1428 -91 1123 -41 
Q 819 9 494 109 
L 494 744 
Q 775 591 1075 516 
Q 1375 441 1709 441 
Q 2250 441 2565 725 
Q 2881 1009 2881 1497 
Q 2881 1984 2565 2268 
Q 2250 2553 1709 2553 
Q 1456 2553 1204 2497 
Q 953 2441 691 2322 
L 691 4666 
z
" transform="scale(0.015625)"/>
       </defs>
       <use xlink:href="#DejaVuSans-35"/>
       <use xlink:href="#DejaVuSans-30" transform="translate(63.623047 0)"/>
      </g>
     </g>
    </g>
    <g id="xtick_3">
     <g id="line2d_3">
      <g>
       <use xlink:href="#m44e83d3164" x="228.666454" y="384.48" style="stroke: #000000; stroke-width: 0.8"/>
      </g>
     </g>
     <g id="text_3">
      <!-- 100 -->
      <g transform="translate(219.122704 399.078438) scale(0.1 -0.1)">
       <defs>
        <path id="DejaVuSans-31" d="M 794 531 
L 1825 531 
L 1825 4091 
L 703 3866 
L 703 4441 
L 1819 4666 
L 2450 4666 
L 2450 531 
L 3481 531 
L 3481 0 
L 794 0 
L 794 531 
z
" transform="scale(0.015625)"/>
       </defs>
       <use xlink:href="#DejaVuSans-31"/>
       <use xlink:href="#DejaVuSans-30" transform="translate(63.623047 0)"/>
       <use xlink:href="#DejaVuSans-30" transform="translate(127.246094 0)"/>
      </g>
     </g>
    </g>
    <g id="xtick_4">
     <g id="line2d_4">
      <g>
       <use xlink:href="#m44e83d3164" x="282.082326" y="384.48" style="stroke: #000000; stroke-width: 0.8"/>
      </g>
     </g>
     <g id="text_4">
      <!-- 150 -->
      <g transform="translate(272.538576 399.078438) scale(0.1 -0.1)">
       <use xlink:href="#DejaVuSans-31"/>
       <use xlink:href="#DejaVuSans-35" transform="translate(63.623047 0)"/>
       <use xlink:href="#DejaVuSans-30" transform="translate(127.246094 0)"/>
      </g>
     </g>
    </g>
    <g id="xtick_5">
     <g id="line2d_5">
      <g>
       <use xlink:href="#m44e83d3164" x="335.498197" y="384.48" style="stroke: #000000; stroke-width: 0.8"/>
      </g>
     </g>
     <g id="text_5">
      <!-- 200 -->
      <g transform="translate(325.954447 399.078438) scale(0.1 -0.1)">
       <defs>
        <path id="DejaVuSans-32" d="M 1228 531 
L 3431 531 
L 3431 0 
L 469 0 
L 469 531 
Q 828 903 1448 1529 
Q 2069 2156 2228 2338 
Q 2531 2678 2651 2914 
Q 2772 3150 2772 3378 
Q 2772 3750 2511 3984 
Q 2250 4219 1831 4219 
Q 1534 4219 1204 4116 
Q 875 4013 500 3803 
L 500 4441 
Q 881 4594 1212 4672 
Q 1544 4750 1819 4750 
Q 2544 4750 2975 4387 
Q 3406 4025 3406 3419 
Q 3406 3131 3298 2873 
Q 3191 2616 2906 2266 
Q 2828 2175 2409 1742 
Q 1991 1309 1228 531 
z
" transform="scale(0.015625)"/>
       </defs>
       <use xlink:href="#DejaVuSans-32"/>
       <use xlink:href="#DejaVuSans-30" transform="translate(63.623047 0)"/>
       <use xlink:href="#DejaVuSans-30" transform="translate(127.246094 0)"/>
      </g>
     </g>
    </g>
    <g id="xtick_6">
     <g id="line2d_6">
      <g>
       <use xlink:href="#m44e83d3164" x="388.914069" y="384.48" style="stroke: #000000; stroke-width: 0.8"/>
      </g>
     </g>
     <g id="text_6">
      <!-- 250 -->
      <g transform="translate(379.370319 399.078438) scale(0.1 -0.1)">
       <use xlink:href="#DejaVuSans-32"/>
       <use xlink:href="#DejaVuSans-35" transform="translate(63.623047 0)"/>
       <use xlink:href="#DejaVuSans-30" transform="translate(127.246094 0)"/>
      </g>
     </g>
    </g>
   </g>
   <g id="matplotlib.axis_2">
    <g id="ytick_1">
     <g id="line2d_7">
      <defs>
       <path id="mc72562ff63" d="M 0 0 
L -3.5 0 
" style="stroke: #000000; stroke-width: 0.8"/>
      </defs>
      <g>
       <use xlink:href="#mc72562ff63" x="108" y="369.312655" style="stroke: #000000; stroke-width: 0.8"/>
      </g>
     </g>
     <g id="text_7">
      <!-- 22 -->
      <g transform="translate(88.275 373.111873) scale(0.1 -0.1)">
       <use xlink:href="#DejaVuSans-32"/>
       <use xlink:href="#DejaVuSans-32" transform="translate(63.623047 0)"/>
      </g>
     </g>
    </g>
    <g id="ytick_2">
     <g id="line2d_8">
      <g>
       <use xlink:href="#mc72562ff63" x="108" y="317.687625" style="stroke: #000000; stroke-width: 0.8"/>
      </g>
     </g>
     <g id="text_8">
      <!-- 23 -->
      <g transform="translate(88.275 321.486843) scale(0.1 -0.1)">
       <defs>
        <path id="DejaVuSans-33" d="M 2597 2516 
Q 3050 2419 3304 2112 
Q 3559 1806 3559 1356 
Q 3559 666 3084 287 
Q 2609 -91 1734 -91 
Q 1441 -91 1130 -33 
Q 819 25 488 141 
L 488 750 
Q 750 597 1062 519 
Q 1375 441 1716 441 
Q 2309 441 2620 675 
Q 2931 909 2931 1356 
Q 2931 1769 2642 2001 
Q 2353 2234 1838 2234 
L 1294 2234 
L 1294 2753 
L 1863 2753 
Q 2328 2753 2575 2939 
Q 2822 3125 2822 3475 
Q 2822 3834 2567 4026 
Q 2313 4219 1838 4219 
Q 1578 4219 1281 4162 
Q 984 4106 628 3988 
L 628 4550 
Q 988 4650 1302 4700 
Q 1616 4750 1894 4750 
Q 2613 4750 3031 4423 
Q 3450 4097 3450 3541 
Q 3450 3153 3228 2886 
Q 3006 2619 2597 2516 
z
" transform="scale(0.015625)"/>
       </defs>
       <use xlink:href="#DejaVuSans-32"/>
       <use xlink:href="#DejaVuSans-33" transform="translate(63.623047 0)"/>
      </g>
     </g>
    </g>
    <g id="ytick_3">
     <g id="line2d_9">
      <g>
       <use xlink:href="#mc72562ff63" x="108" y="266.062595" style="stroke: #000000; stroke-width: 0.8"/>
      </g>
     </g>
     <g id="text_9">
      <!-- 24 -->
      <g transform="translate(88.275 269.861813) scale(0.1 -0.1)">
       <defs>
        <path id="DejaVuSans-34" d="M 2419 4116 
L 825 1625 
L 2419 1625 
L 2419 4116 
z
M 2253 4666 
L 3047 4666 
L 3047 1625 
L 3713 1625 
L 3713 1100 
L 3047 1100 
L 3047 0 
L 2419 0 
L 2419 1100 
L 313 1100 
L 313 1709 
L 2253 4666 
z
" transform="scale(0.015625)"/>
       </defs>
       <use xlink:href="#DejaVuSans-32"/>
       <use xlink:href="#DejaVuSans-34" transform="translate(63.623047 0)"/>
      </g>
     </g>
    </g>
    <g id="ytick_4">
     <g id="line2d_10">
      <g>
       <use xlink:href="#mc72562ff63" x="108" y="214.437565" style="stroke: #000000; stroke-width: 0.8"/>
      </g>
     </g>
     <g id="text_10">
      <!-- 25 -->
      <g transform="translate(88.275 218.236784) scale(0.1 -0.1)">
       <use xlink:href="#DejaVuSans-32"/>
       <use xlink:href="#DejaVuSans-35" transform="translate(63.623047 0)"/>
      </g>
     </g>
    </g>
    <g id="ytick_5">
     <g id="line2d_11">
      <g>
       <use xlink:href="#mc72562ff63" x="108" y="162.812535" style="stroke: #000000; stroke-width: 0.8"/>
      </g>
     </g>
     <g id="text_11">
      <!-- 26 -->
      <g transform="translate(88.275 166.611754) scale(0.1 -0.1)">
       <defs>
        <path id="DejaVuSans-36" d="M 2113 2584 
Q 1688 2584 1439 2293 
Q 1191 2003 1191 1497 
Q 1191 994 1439 701 
Q 1688 409 2113 409 
Q 2538 409 2786 701 
Q 3034 994 3034 1497 
Q 3034 2003 2786 2293 
Q 2538 2584 2113 2584 
z
M 3366 4563 
L 3366 3988 
Q 3128 4100 2886 4159 
Q 2644 4219 2406 4219 
Q 1781 4219 1451 3797 
Q 1122 3375 1075 2522 
Q 1259 2794 1537 2939 
Q 1816 3084 2150 3084 
Q 2853 3084 3261 2657 
Q 3669 2231 3669 1497 
Q 3669 778 3244 343 
Q 2819 -91 2113 -91 
Q 1303 -91 875 529 
Q 447 1150 447 2328 
Q 447 3434 972 4092 
Q 1497 4750 2381 4750 
Q 2619 4750 2861 4703 
Q 3103 4656 3366 4563 
z
" transform="scale(0.015625)"/>
       </defs>
       <use xlink:href="#DejaVuSans-32"/>
       <use xlink:href="#DejaVuSans-36" transform="translate(63.623047 0)"/>
      </g>
     </g>
    </g>
    <g id="ytick_6">
     <g id="line2d_12">
      <g>
       <use xlink:href="#mc72562ff63" x="108" y="111.187505" style="stroke: #000000; stroke-width: 0.8"/>
      </g>
     </g>
     <g id="text_12">
      <!-- 27 -->
      <g transform="translate(88.275 114.986724) scale(0.1 -0.1)">
       <defs>
        <path id="DejaVuSans-37" d="M 525 4666 
L 3525 4666 
L 3525 4397 
L 1831 0 
L 1172 0 
L 2766 4134 
L 525 4134 
L 525 4666 
z
" transform="scale(0.015625)"/>
       </defs>
       <use xlink:href="#DejaVuSans-32"/>
       <use xlink:href="#DejaVuSans-37" transform="translate(63.623047 0)"/>
      </g>
     </g>
    </g>
    <g id="ytick_7">
     <g id="line2d_13">
      <g>
       <use xlink:href="#mc72562ff63" x="108" y="59.562475" style="stroke: #000000; stroke-width: 0.8"/>
      </g>
     </g>
     <g id="text_13">
      <!-- 28 -->
      <g transform="translate(88.275 63.361694) scale(0.1 -0.1)">
       <defs>
        <path id="DejaVuSans-38" d="M 2034 2216 
Q 1584 2216 1326 1975 
Q 1069 1734 1069 1313 
Q 1069 891 1326 650 
Q 1584 409 2034 409 
Q 2484 409 2743 651 
Q 3003 894 3003 1313 
Q 3003 1734 2745 1975 
Q 2488 2216 2034 2216 
z
M 1403 2484 
Q 997 2584 770 2862 
Q 544 3141 544 3541 
Q 544 4100 942 4425 
Q 1341 4750 2034 4750 
Q 2731 4750 3128 4425 
Q 3525 4100 3525 3541 
Q 3525 3141 3298 2862 
Q 3072 2584 2669 2484 
Q 3125 2378 3379 2068 
Q 3634 1759 3634 1313 
Q 3634 634 3220 271 
Q 2806 -91 2034 -91 
Q 1263 -91 848 271 
Q 434 634 434 1313 
Q 434 1759 690 2068 
Q 947 2378 1403 2484 
z
M 1172 3481 
Q 1172 3119 1398 2916 
Q 1625 2713 2034 2713 
Q 2441 2713 2670 2916 
Q 2900 3119 2900 3481 
Q 2900 3844 2670 4047 
Q 2441 4250 2034 4250 
Q 1625 4250 1398 4047 
Q 1172 3844 1172 3481 
z
" transform="scale(0.015625)"/>
       </defs>
       <use xlink:href="#DejaVuSans-32"/>
       <use xlink:href="#DejaVuSans-38" transform="translate(63.623047 0)"/>
      </g>
     </g>
    </g>
   </g>
   <g id="line2d_14">
    <path d="M 121.834711 69.433322 
L 122.903028 73.922006 
L 123.971346 68.900709 
L 125.039663 77.891808 
L 126.10798 75.929217 
L 127.176298 73.048011 
L 128.244615 75.955136 
L 129.312933 78.018543 
L 130.38125 76.36613 
L 131.449568 81.826894 
L 132.517885 80.755013 
L 133.586202 83.121569 
L 134.65452 87.081631 
L 135.722837 91.998814 
L 136.791155 87.916921 
L 138.92779 94.970814 
L 139.996107 93.828368 
L 141.064425 91.729804 
L 142.132742 96.764064 
L 143.201059 99.247518 
L 144.269377 99.0197 
L 145.337694 94.815522 
L 146.406012 101.395641 
L 147.474329 103.370447 
L 148.542647 103.23118 
L 150.679281 106.105208 
L 151.747599 104.192185 
L 152.815916 110.538977 
L 153.884234 109.01483 
L 154.952551 114.862104 
L 156.020869 110.727162 
L 157.089186 112.362823 
L 159.225821 117.52123 
L 160.294138 124.983352 
L 161.362456 115.854114 
L 162.430773 120.247295 
L 163.499091 117.906219 
L 164.567408 120.842227 
L 165.635725 118.667562 
L 166.704043 119.887674 
L 167.77236 121.496985 
L 168.840678 125.300196 
L 169.908995 125.478838 
L 170.977313 135.588816 
L 172.04563 129.806806 
L 173.113947 129.086023 
L 175.250582 137.534309 
L 176.3189 127.196672 
L 177.387217 131.413932 
L 178.455535 140.872495 
L 179.523852 128.722877 
L 180.59217 138.595896 
L 181.660487 140.471021 
L 182.728804 137.034306 
L 183.797122 139.954697 
L 184.865439 146.591851 
L 185.933757 142.743079 
L 187.002074 144.506316 
L 188.070392 144.870986 
L 189.138709 143.424766 
L 190.207026 150.299158 
L 191.275344 147.411305 
L 192.343661 148.557266 
L 193.411979 144.37991 
L 194.480296 150.339574 
L 195.548614 144.215691 
L 197.685248 149.430399 
L 198.753566 148.872707 
L 199.821883 157.008298 
L 200.890201 156.875986 
L 201.958518 149.872077 
L 203.026836 151.025854 
L 204.095153 156.548189 
L 205.16347 159.709529 
L 206.231788 155.589936 
L 207.300105 150.742387 
L 208.368423 157.224861 
L 209.43674 154.284036 
L 210.505058 158.417618 
L 211.573375 155.747417 
L 212.641692 158.944426 
L 213.71001 155.841879 
L 214.778327 166.109574 
L 215.846645 160.399199 
L 216.914962 156.023023 
L 217.98328 163.778151 
L 219.051597 165.358567 
L 220.119914 158.513129 
L 221.188232 159.519636 
L 222.256549 171.361382 
L 223.324867 163.788889 
L 224.393184 164.286755 
L 225.461502 165.409977 
L 226.529819 165.539348 
L 227.598137 166.885582 
L 228.666454 166.087592 
L 229.734771 170.852404 
L 230.803089 173.382096 
L 231.871406 167.220515 
L 232.939724 167.202688 
L 234.008041 171.862529 
L 235.076359 178.618333 
L 236.144676 169.172765 
L 237.212993 175.08308 
L 238.281311 175.580392 
L 239.349628 169.898449 
L 240.417946 176.468776 
L 241.486263 173.038968 
L 242.554581 171.874459 
L 243.622898 174.990386 
L 244.691215 174.620682 
L 245.759533 171.427441 
L 246.82785 166.911556 
L 247.896168 175.778874 
L 248.964485 180.520672 
L 250.032803 178.603307 
L 251.10112 180.44775 
L 252.169437 177.868636 
L 253.237755 178.883027 
L 254.306072 180.816726 
L 255.37439 177.090976 
L 256.442707 190.019578 
L 257.511025 183.5078 
L 258.579342 179.983784 
L 259.647659 188.617862 
L 260.715977 187.367627 
L 261.784294 184.666618 
L 262.852612 186.583995 
L 263.920929 185.7948 
L 264.989247 191.881666 
L 266.057564 199.888702 
L 267.125881 199.876733 
L 268.194199 192.785738 
L 269.262516 193.141991 
L 270.330834 188.896023 
L 271.399151 199.140117 
L 272.467469 187.479584 
L 273.535786 198.126845 
L 274.604104 194.453051 
L 275.672421 189.75774 
L 276.740738 197.2946 
L 277.809056 188.872684 
L 278.877373 194.576994 
L 279.945691 198.263963 
L 281.014008 208.169492 
L 282.082326 201.190951 
L 283.150643 202.398606 
L 284.21896 203.101163 
L 285.287278 191.911972 
L 286.355595 203.484492 
L 287.423913 204.820767 
L 288.49223 191.567773 
L 289.560548 203.560403 
L 291.697182 201.05438 
L 292.7655 203.843276 
L 293.833817 206.17328 
L 294.902135 209.33892 
L 295.970452 210.060806 
L 297.03877 206.511198 
L 298.107087 218.788688 
L 299.175404 216.130765 
L 300.243722 202.029003 
L 301.312039 211.161828 
L 302.380357 208.695869 
L 303.448674 203.732208 
L 304.516992 217.810114 
L 305.585309 197.923794 
L 306.653626 209.661803 
L 307.721944 219.122269 
L 308.790261 217.221843 
L 309.858579 218.290396 
L 310.926896 208.614437 
L 311.995214 202.051993 
L 313.063531 216.747262 
L 314.131848 211.526031 
L 315.200166 208.870725 
L 316.268483 214.237591 
L 317.336801 203.385361 
L 318.405118 212.764154 
L 319.473436 220.128303 
L 320.541753 226.225873 
L 321.610071 217.201573 
L 322.678388 221.106179 
L 323.746705 220.26901 
L 324.815023 225.56387 
L 325.88334 218.888368 
L 326.951658 216.483809 
L 328.019975 219.984497 
L 329.088293 210.690036 
L 330.15661 224.934748 
L 331.224927 229.623859 
L 332.293245 220.814859 
L 333.361562 228.063017 
L 334.42988 227.394868 
L 335.498197 228.712308 
L 336.566515 224.444968 
L 337.634832 238.059114 
L 338.703149 227.616285 
L 339.771467 232.303629 
L 340.839784 240.346031 
L 341.908102 238.71983 
L 342.976419 217.99933 
L 344.044737 239.058581 
L 345.113054 229.978012 
L 346.181371 236.015084 
L 347.249689 247.73238 
L 348.318006 244.155416 
L 349.386324 234.580856 
L 350.454641 233.190077 
L 351.522959 244.103128 
L 352.591276 240.782269 
L 353.659593 252.118401 
L 354.727911 254.611819 
L 355.796228 242.350345 
L 356.864546 256.702599 
L 357.932863 256.968457 
L 359.001181 254.250969 
L 360.069498 250.772113 
L 361.137816 250.647117 
L 362.206133 267.547048 
L 363.27445 269.064497 
L 364.342768 269.150188 
L 365.411085 272.017136 
L 366.479403 277.981997 
L 367.54772 286.037697 
L 368.616038 277.254211 
L 369.684355 281.368774 
L 370.752672 285.032657 
L 371.82099 297.580946 
L 372.889307 290.763246 
L 373.957625 293.525187 
L 375.025942 304.478734 
L 376.09426 297.088008 
L 377.162577 297.609706 
L 378.230894 305.211212 
L 379.299212 295.154969 
L 380.367529 315.245911 
L 381.435847 306.828052 
L 382.504164 304.098479 
L 383.572482 313.48225 
L 384.640799 326.105846 
L 385.709116 329.87192 
L 386.777434 332.250891 
L 387.845751 330.871236 
L 388.914069 333.745144 
L 389.982386 331.911372 
L 391.050704 334.055398 
L 392.119021 340.610061 
L 393.187338 354.328454 
L 394.255656 348.762018 
L 395.323973 338.992457 
L 396.392291 348.748784 
L 397.460608 366.056756 
L 398.528926 369.36 
L 398.528926 369.36 
" clip-path="url(#pe463b7cb04)" style="fill: none; stroke: #1f77b4; stroke-width: 1.5; stroke-linecap: square"/>
   </g>
   <g id="line2d_15">
    <path d="M 121.834711 66.96 
L 128.244615 77.219141 
L 131.449568 82.144438 
L 135.722837 88.445573 
L 138.92779 92.883487 
L 145.337694 101.343342 
L 154.952551 113.036891 
L 158.157503 116.50404 
L 160.294138 118.837913 
L 165.635725 124.431652 
L 174.182265 132.785606 
L 178.455535 136.572949 
L 181.660487 139.296279 
L 187.002074 143.602858 
L 192.343661 147.637028 
L 195.548614 149.889912 
L 197.685248 151.506946 
L 200.890201 153.577843 
L 203.026836 154.960654 
L 206.231788 156.972914 
L 213.71001 161.25078 
L 217.98328 163.496949 
L 220.119914 164.653394 
L 232.939724 170.752288 
L 236.144676 172.156347 
L 238.281311 173.126591 
L 247.896168 176.91618 
L 248.964485 177.330469 
L 251.10112 179.218002 
L 257.511025 183.994948 
L 263.920929 188.215102 
L 264.989247 188.802064 
L 268.194199 190.931165 
L 274.604104 194.424978 
L 276.740738 195.384155 
L 277.809056 195.960797 
L 278.877373 196.347762 
L 279.945691 196.917954 
L 282.082326 197.885047 
L 285.287278 199.403437 
L 299.175404 204.58777 
L 310.926896 208.334388 
L 314.131848 209.152549 
L 323.746705 211.667306 
L 324.815023 212.66001 
L 330.15661 216.104807 
L 331.224927 216.936921 
L 332.293245 217.590417 
L 333.361562 218.385911 
L 336.566515 220.33858 
L 341.908102 224.075055 
L 345.113054 226.441914 
L 349.386324 230.087869 
L 353.659593 234.318619 
L 354.727911 235.693316 
L 355.796228 236.71814 
L 357.932863 239.141125 
L 359.001181 240.69193 
L 360.069498 241.956137 
L 365.411085 249.941392 
L 366.479403 252.03795 
L 367.54772 253.557915 
L 369.684355 257.358108 
L 371.82099 261.686626 
L 372.889307 263.561042 
L 377.162577 272.50827 
L 378.230894 275.315572 
L 381.435847 281.976367 
L 382.504164 284.779356 
L 383.572482 287.038601 
L 386.777434 295.297545 
L 391.050704 305.884955 
L 392.119021 307.870787 
L 394.255656 313.299702 
L 395.323973 315.974989 
L 397.460608 322.741657 
L 398.528926 325.144171 
L 398.528926 325.144171 
" clip-path="url(#pe463b7cb04)" style="fill: none; stroke: #ff7f0e; stroke-width: 1.5; stroke-linecap: square"/>
   </g>
   <g id="patch_3">
    <path d="M 108 384.48 
L 108 51.84 
" style="fill: none; stroke: #000000; stroke-width: 0.8; stroke-linejoin: miter; stroke-linecap: square"/>
   </g>
   <g id="patch_4">
    <path d="M 412.363636 384.48 
L 412.363636 51.84 
" style="fill: none; stroke: #000000; stroke-width: 0.8; stroke-linejoin: miter; stroke-linecap: square"/>
   </g>
   <g id="patch_5">
    <path d="M 108 384.48 
L 412.363636 384.48 
" style="fill: none; stroke: #000000; stroke-width: 0.8; stroke-linejoin: miter; stroke-linecap: square"/>
   </g>
   <g id="patch_6">
    <path d="M 108 51.84 
L 412.363636 51.84 
" style="fill: none; stroke: #000000; stroke-width: 0.8; stroke-linejoin: miter; stroke-linecap: square"/>
   </g>
   <g id="text_14">
    <!-- Loss over epochs -->
    <g transform="translate(208.427131 45.84) scale(0.12 -0.12)">
     <defs>
      <path id="DejaVuSans-4c" d="M 628 4666 
L 1259 4666 
L 1259 531 
L 3531 531 
L 3531 0 
L 628 0 
L 628 4666 
z
" transform="scale(0.015625)"/>
      <path id="DejaVuSans-6f" d="M 1959 3097 
Q 1497 3097 1228 2736 
Q 959 2375 959 1747 
Q 959 1119 1226 758 
Q 1494 397 1959 397 
Q 2419 397 2687 759 
Q 2956 1122 2956 1747 
Q 2956 2369 2687 2733 
Q 2419 3097 1959 3097 
z
M 1959 3584 
Q 2709 3584 3137 3096 
Q 3566 2609 3566 1747 
Q 3566 888 3137 398 
Q 2709 -91 1959 -91 
Q 1206 -91 779 398 
Q 353 888 353 1747 
Q 353 2609 779 3096 
Q 1206 3584 1959 3584 
z
" transform="scale(0.015625)"/>
      <path id="DejaVuSans-73" d="M 2834 3397 
L 2834 2853 
Q 2591 2978 2328 3040 
Q 2066 3103 1784 3103 
Q 1356 3103 1142 2972 
Q 928 2841 928 2578 
Q 928 2378 1081 2264 
Q 1234 2150 1697 2047 
L 1894 2003 
Q 2506 1872 2764 1633 
Q 3022 1394 3022 966 
Q 3022 478 2636 193 
Q 2250 -91 1575 -91 
Q 1294 -91 989 -36 
Q 684 19 347 128 
L 347 722 
Q 666 556 975 473 
Q 1284 391 1588 391 
Q 1994 391 2212 530 
Q 2431 669 2431 922 
Q 2431 1156 2273 1281 
Q 2116 1406 1581 1522 
L 1381 1569 
Q 847 1681 609 1914 
Q 372 2147 372 2553 
Q 372 3047 722 3315 
Q 1072 3584 1716 3584 
Q 2034 3584 2315 3537 
Q 2597 3491 2834 3397 
z
" transform="scale(0.015625)"/>
      <path id="DejaVuSans-20" transform="scale(0.015625)"/>
      <path id="DejaVuSans-76" d="M 191 3500 
L 800 3500 
L 1894 563 
L 2988 3500 
L 3597 3500 
L 2284 0 
L 1503 0 
L 191 3500 
z
" transform="scale(0.015625)"/>
      <path id="DejaVuSans-65" d="M 3597 1894 
L 3597 1613 
L 953 1613 
Q 991 1019 1311 708 
Q 1631 397 2203 397 
Q 2534 397 2845 478 
Q 3156 559 3463 722 
L 3463 178 
Q 3153 47 2828 -22 
Q 2503 -91 2169 -91 
Q 1331 -91 842 396 
Q 353 884 353 1716 
Q 353 2575 817 3079 
Q 1281 3584 2069 3584 
Q 2775 3584 3186 3129 
Q 3597 2675 3597 1894 
z
M 3022 2063 
Q 3016 2534 2758 2815 
Q 2500 3097 2075 3097 
Q 1594 3097 1305 2825 
Q 1016 2553 972 2059 
L 3022 2063 
z
" transform="scale(0.015625)"/>
      <path id="DejaVuSans-72" d="M 2631 2963 
Q 2534 3019 2420 3045 
Q 2306 3072 2169 3072 
Q 1681 3072 1420 2755 
Q 1159 2438 1159 1844 
L 1159 0 
L 581 0 
L 581 3500 
L 1159 3500 
L 1159 2956 
Q 1341 3275 1631 3429 
Q 1922 3584 2338 3584 
Q 2397 3584 2469 3576 
Q 2541 3569 2628 3553 
L 2631 2963 
z
" transform="scale(0.015625)"/>
      <path id="DejaVuSans-70" d="M 1159 525 
L 1159 -1331 
L 581 -1331 
L 581 3500 
L 1159 3500 
L 1159 2969 
Q 1341 3281 1617 3432 
Q 1894 3584 2278 3584 
Q 2916 3584 3314 3078 
Q 3713 2572 3713 1747 
Q 3713 922 3314 415 
Q 2916 -91 2278 -91 
Q 1894 -91 1617 61 
Q 1341 213 1159 525 
z
M 3116 1747 
Q 3116 2381 2855 2742 
Q 2594 3103 2138 3103 
Q 1681 3103 1420 2742 
Q 1159 2381 1159 1747 
Q 1159 1113 1420 752 
Q 1681 391 2138 391 
Q 2594 391 2855 752 
Q 3116 1113 3116 1747 
z
" transform="scale(0.015625)"/>
      <path id="DejaVuSans-63" d="M 3122 3366 
L 3122 2828 
Q 2878 2963 2633 3030 
Q 2388 3097 2138 3097 
Q 1578 3097 1268 2742 
Q 959 2388 959 1747 
Q 959 1106 1268 751 
Q 1578 397 2138 397 
Q 2388 397 2633 464 
Q 2878 531 3122 666 
L 3122 134 
Q 2881 22 2623 -34 
Q 2366 -91 2075 -91 
Q 1284 -91 818 406 
Q 353 903 353 1747 
Q 353 2603 823 3093 
Q 1294 3584 2113 3584 
Q 2378 3584 2631 3529 
Q 2884 3475 3122 3366 
z
" transform="scale(0.015625)"/>
      <path id="DejaVuSans-68" d="M 3513 2113 
L 3513 0 
L 2938 0 
L 2938 2094 
Q 2938 2591 2744 2837 
Q 2550 3084 2163 3084 
Q 1697 3084 1428 2787 
Q 1159 2491 1159 1978 
L 1159 0 
L 581 0 
L 581 4863 
L 1159 4863 
L 1159 2956 
Q 1366 3272 1645 3428 
Q 1925 3584 2291 3584 
Q 2894 3584 3203 3211 
Q 3513 2838 3513 2113 
z
" transform="scale(0.015625)"/>
     </defs>
     <use xlink:href="#DejaVuSans-4c"/>
     <use xlink:href="#DejaVuSans-6f" transform="translate(53.962891 0)"/>
     <use xlink:href="#DejaVuSans-73" transform="translate(115.144531 0)"/>
     <use xlink:href="#DejaVuSans-73" transform="translate(167.244141 0)"/>
     <use xlink:href="#DejaVuSans-20" transform="translate(219.34375 0)"/>
     <use xlink:href="#DejaVuSans-6f" transform="translate(251.130859 0)"/>
     <use xlink:href="#DejaVuSans-76" transform="translate(312.3125 0)"/>
     <use xlink:href="#DejaVuSans-65" transform="translate(371.492188 0)"/>
     <use xlink:href="#DejaVuSans-72" transform="translate(433.015625 0)"/>
     <use xlink:href="#DejaVuSans-20" transform="translate(474.128906 0)"/>
     <use xlink:href="#DejaVuSans-65" transform="translate(505.916016 0)"/>
     <use xlink:href="#DejaVuSans-70" transform="translate(567.439453 0)"/>
     <use xlink:href="#DejaVuSans-6f" transform="translate(630.916016 0)"/>
     <use xlink:href="#DejaVuSans-63" transform="translate(692.097656 0)"/>
     <use xlink:href="#DejaVuSans-68" transform="translate(747.078125 0)"/>
     <use xlink:href="#DejaVuSans-73" transform="translate(810.457031 0)"/>
    </g>
   </g>
   <g id="legend_1">
    <g id="patch_7">
     <path d="M 324.263636 89.19625 
L 405.363636 89.19625 
Q 407.363636 89.19625 407.363636 87.19625 
L 407.363636 58.84 
Q 407.363636 56.84 405.363636 56.84 
L 324.263636 56.84 
Q 322.263636 56.84 322.263636 58.84 
L 322.263636 87.19625 
Q 322.263636 89.19625 324.263636 89.19625 
z
" style="fill: #ffffff; opacity: 0.8; stroke: #cccccc; stroke-linejoin: miter"/>
    </g>
    <g id="line2d_16">
     <path d="M 326.263636 64.938437 
L 336.263636 64.938437 
L 346.263636 64.938437 
" style="fill: none; stroke: #1f77b4; stroke-width: 1.5; stroke-linecap: square"/>
    </g>
    <g id="text_15">
     <!-- Train Loss -->
     <g transform="translate(354.263636 68.438437) scale(0.1 -0.1)">
      <defs>
       <path id="DejaVuSans-54" d="M -19 4666 
L 3928 4666 
L 3928 4134 
L 2272 4134 
L 2272 0 
L 1638 0 
L 1638 4134 
L -19 4134 
L -19 4666 
z
" transform="scale(0.015625)"/>
       <path id="DejaVuSans-61" d="M 2194 1759 
Q 1497 1759 1228 1600 
Q 959 1441 959 1056 
Q 959 750 1161 570 
Q 1363 391 1709 391 
Q 2188 391 2477 730 
Q 2766 1069 2766 1631 
L 2766 1759 
L 2194 1759 
z
M 3341 1997 
L 3341 0 
L 2766 0 
L 2766 531 
Q 2569 213 2275 61 
Q 1981 -91 1556 -91 
Q 1019 -91 701 211 
Q 384 513 384 1019 
Q 384 1609 779 1909 
Q 1175 2209 1959 2209 
L 2766 2209 
L 2766 2266 
Q 2766 2663 2505 2880 
Q 2244 3097 1772 3097 
Q 1472 3097 1187 3025 
Q 903 2953 641 2809 
L 641 3341 
Q 956 3463 1253 3523 
Q 1550 3584 1831 3584 
Q 2591 3584 2966 3190 
Q 3341 2797 3341 1997 
z
" transform="scale(0.015625)"/>
       <path id="DejaVuSans-69" d="M 603 3500 
L 1178 3500 
L 1178 0 
L 603 0 
L 603 3500 
z
M 603 4863 
L 1178 4863 
L 1178 4134 
L 603 4134 
L 603 4863 
z
" transform="scale(0.015625)"/>
       <path id="DejaVuSans-6e" d="M 3513 2113 
L 3513 0 
L 2938 0 
L 2938 2094 
Q 2938 2591 2744 2837 
Q 2550 3084 2163 3084 
Q 1697 3084 1428 2787 
Q 1159 2491 1159 1978 
L 1159 0 
L 581 0 
L 581 3500 
L 1159 3500 
L 1159 2956 
Q 1366 3272 1645 3428 
Q 1925 3584 2291 3584 
Q 2894 3584 3203 3211 
Q 3513 2838 3513 2113 
z
" transform="scale(0.015625)"/>
      </defs>
      <use xlink:href="#DejaVuSans-54"/>
      <use xlink:href="#DejaVuSans-72" transform="translate(46.333984 0)"/>
      <use xlink:href="#DejaVuSans-61" transform="translate(87.447266 0)"/>
      <use xlink:href="#DejaVuSans-69" transform="translate(148.726562 0)"/>
      <use xlink:href="#DejaVuSans-6e" transform="translate(176.509766 0)"/>
      <use xlink:href="#DejaVuSans-20" transform="translate(239.888672 0)"/>
      <use xlink:href="#DejaVuSans-4c" transform="translate(271.675781 0)"/>
      <use xlink:href="#DejaVuSans-6f" transform="translate(325.638672 0)"/>
      <use xlink:href="#DejaVuSans-73" transform="translate(386.820312 0)"/>
      <use xlink:href="#DejaVuSans-73" transform="translate(438.919922 0)"/>
     </g>
    </g>
    <g id="line2d_17">
     <path d="M 326.263636 79.616562 
L 336.263636 79.616562 
L 346.263636 79.616562 
" style="fill: none; stroke: #ff7f0e; stroke-width: 1.5; stroke-linecap: square"/>
    </g>
    <g id="text_16">
     <!-- Test Loss -->
     <g transform="translate(354.263636 83.116562) scale(0.1 -0.1)">
      <defs>
       <path id="DejaVuSans-74" d="M 1172 4494 
L 1172 3500 
L 2356 3500 
L 2356 3053 
L 1172 3053 
L 1172 1153 
Q 1172 725 1289 603 
Q 1406 481 1766 481 
L 2356 481 
L 2356 0 
L 1766 0 
Q 1100 0 847 248 
Q 594 497 594 1153 
L 594 3053 
L 172 3053 
L 172 3500 
L 594 3500 
L 594 4494 
L 1172 4494 
z
" transform="scale(0.015625)"/>
      </defs>
      <use xlink:href="#DejaVuSans-54"/>
      <use xlink:href="#DejaVuSans-65" transform="translate(44.083984 0)"/>
      <use xlink:href="#DejaVuSans-73" transform="translate(105.607422 0)"/>
      <use xlink:href="#DejaVuSans-74" transform="translate(157.707031 0)"/>
      <use xlink:href="#DejaVuSans-20" transform="translate(196.916016 0)"/>
      <use xlink:href="#DejaVuSans-4c" transform="translate(228.703125 0)"/>
      <use xlink:href="#DejaVuSans-6f" transform="translate(282.666016 0)"/>
      <use xlink:href="#DejaVuSans-73" transform="translate(343.847656 0)"/>
      <use xlink:href="#DejaVuSans-73" transform="translate(395.947266 0)"/>
     </g>
    </g>
   </g>
  </g>
  <g id="axes_2">
   <g id="patch_8">
    <path d="M 473.236364 384.48 
L 777.6 384.48 
L 777.6 51.84 
L 473.236364 51.84 
z
" style="fill: #ffffff"/>
   </g>
   <g id="matplotlib.axis_3">
    <g id="xtick_7">
     <g id="line2d_18">
      <g>
       <use xlink:href="#m44e83d3164" x="487.071074" y="384.48" style="stroke: #000000; stroke-width: 0.8"/>
      </g>
     </g>
     <g id="text_17">
      <!-- 0 -->
      <g transform="translate(483.889824 399.078438) scale(0.1 -0.1)">
       <use xlink:href="#DejaVuSans-30"/>
      </g>
     </g>
    </g>
    <g id="xtick_8">
     <g id="line2d_19">
      <g>
       <use xlink:href="#m44e83d3164" x="540.486946" y="384.48" style="stroke: #000000; stroke-width: 0.8"/>
      </g>
     </g>
     <g id="text_18">
      <!-- 50 -->
      <g transform="translate(534.124446 399.078438) scale(0.1 -0.1)">
       <use xlink:href="#DejaVuSans-35"/>
       <use xlink:href="#DejaVuSans-30" transform="translate(63.623047 0)"/>
      </g>
     </g>
    </g>
    <g id="xtick_9">
     <g id="line2d_20">
      <g>
       <use xlink:href="#m44e83d3164" x="593.902818" y="384.48" style="stroke: #000000; stroke-width: 0.8"/>
      </g>
     </g>
     <g id="text_19">
      <!-- 100 -->
      <g transform="translate(584.359068 399.078438) scale(0.1 -0.1)">
       <use xlink:href="#DejaVuSans-31"/>
       <use xlink:href="#DejaVuSans-30" transform="translate(63.623047 0)"/>
       <use xlink:href="#DejaVuSans-30" transform="translate(127.246094 0)"/>
      </g>
     </g>
    </g>
    <g id="xtick_10">
     <g id="line2d_21">
      <g>
       <use xlink:href="#m44e83d3164" x="647.318689" y="384.48" style="stroke: #000000; stroke-width: 0.8"/>
      </g>
     </g>
     <g id="text_20">
      <!-- 150 -->
      <g transform="translate(637.774939 399.078438) scale(0.1 -0.1)">
       <use xlink:href="#DejaVuSans-31"/>
       <use xlink:href="#DejaVuSans-35" transform="translate(63.623047 0)"/>
       <use xlink:href="#DejaVuSans-30" transform="translate(127.246094 0)"/>
      </g>
     </g>
    </g>
    <g id="xtick_11">
     <g id="line2d_22">
      <g>
       <use xlink:href="#m44e83d3164" x="700.734561" y="384.48" style="stroke: #000000; stroke-width: 0.8"/>
      </g>
     </g>
     <g id="text_21">
      <!-- 200 -->
      <g transform="translate(691.190811 399.078438) scale(0.1 -0.1)">
       <use xlink:href="#DejaVuSans-32"/>
       <use xlink:href="#DejaVuSans-30" transform="translate(63.623047 0)"/>
       <use xlink:href="#DejaVuSans-30" transform="translate(127.246094 0)"/>
      </g>
     </g>
    </g>
    <g id="xtick_12">
     <g id="line2d_23">
      <g>
       <use xlink:href="#m44e83d3164" x="754.150432" y="384.48" style="stroke: #000000; stroke-width: 0.8"/>
      </g>
     </g>
     <g id="text_22">
      <!-- 250 -->
      <g transform="translate(744.606682 399.078438) scale(0.1 -0.1)">
       <use xlink:href="#DejaVuSans-32"/>
       <use xlink:href="#DejaVuSans-35" transform="translate(63.623047 0)"/>
       <use xlink:href="#DejaVuSans-30" transform="translate(127.246094 0)"/>
      </g>
     </g>
    </g>
   </g>
   <g id="matplotlib.axis_4">
    <g id="ytick_8">
     <g id="line2d_24">
      <g>
       <use xlink:href="#mc72562ff63" x="473.236364" y="344.557476" style="stroke: #000000; stroke-width: 0.8"/>
      </g>
     </g>
     <g id="text_23">
      <!-- 40 -->
      <g transform="translate(453.511364 348.356695) scale(0.1 -0.1)">
       <use xlink:href="#DejaVuSans-34"/>
       <use xlink:href="#DejaVuSans-30" transform="translate(63.623047 0)"/>
      </g>
     </g>
    </g>
    <g id="ytick_9">
     <g id="line2d_25">
      <g>
       <use xlink:href="#mc72562ff63" x="473.236364" y="275.873564" style="stroke: #000000; stroke-width: 0.8"/>
      </g>
     </g>
     <g id="text_24">
      <!-- 50 -->
      <g transform="translate(453.511364 279.672783) scale(0.1 -0.1)">
       <use xlink:href="#DejaVuSans-35"/>
       <use xlink:href="#DejaVuSans-30" transform="translate(63.623047 0)"/>
      </g>
     </g>
    </g>
    <g id="ytick_10">
     <g id="line2d_26">
      <g>
       <use xlink:href="#mc72562ff63" x="473.236364" y="207.189652" style="stroke: #000000; stroke-width: 0.8"/>
      </g>
     </g>
     <g id="text_25">
      <!-- 60 -->
      <g transform="translate(453.511364 210.988871) scale(0.1 -0.1)">
       <use xlink:href="#DejaVuSans-36"/>
       <use xlink:href="#DejaVuSans-30" transform="translate(63.623047 0)"/>
      </g>
     </g>
    </g>
    <g id="ytick_11">
     <g id="line2d_27">
      <g>
       <use xlink:href="#mc72562ff63" x="473.236364" y="138.505741" style="stroke: #000000; stroke-width: 0.8"/>
      </g>
     </g>
     <g id="text_26">
      <!-- 70 -->
      <g transform="translate(453.511364 142.304959) scale(0.1 -0.1)">
       <use xlink:href="#DejaVuSans-37"/>
       <use xlink:href="#DejaVuSans-30" transform="translate(63.623047 0)"/>
      </g>
     </g>
    </g>
    <g id="ytick_12">
     <g id="line2d_28">
      <g>
       <use xlink:href="#mc72562ff63" x="473.236364" y="69.821829" style="stroke: #000000; stroke-width: 0.8"/>
      </g>
     </g>
     <g id="text_27">
      <!-- 80 -->
      <g transform="translate(453.511364 73.621047) scale(0.1 -0.1)">
       <use xlink:href="#DejaVuSans-38"/>
       <use xlink:href="#DejaVuSans-30" transform="translate(63.623047 0)"/>
      </g>
     </g>
    </g>
   </g>
   <g id="line2d_29">
    <path d="M 487.071074 311.169464 
L 488.139392 302.583975 
L 489.207709 320.708896 
L 490.276027 294.952429 
L 491.344344 293.044543 
L 492.412662 288.751798 
L 493.480979 282.074196 
L 494.549296 287.797855 
L 495.617614 279.689338 
L 496.685931 274.44265 
L 497.754249 265.380189 
L 498.822566 242.485552 
L 499.890884 240.100694 
L 500.959201 226.745489 
L 502.027518 248.209211 
L 503.095836 222.452744 
L 504.164153 214.344227 
L 505.232471 213.867256 
L 506.300788 222.452744 
L 507.369106 221.02183 
L 508.437423 195.265363 
L 509.50574 200.989022 
L 510.574058 201.942965 
L 511.642375 189.541703 
L 512.710693 182.864101 
L 513.77901 184.295016 
L 514.847328 177.140442 
L 515.915645 179.5253 
L 516.983962 177.140442 
L 518.05228 162.354322 
L 519.120597 158.061577 
L 520.188915 152.81489 
L 521.257232 163.308265 
L 522.32555 154.722776 
L 523.393867 152.81489 
L 524.462184 143.275457 
L 525.530502 136.120883 
L 526.598819 148.045174 
L 527.667137 145.660315 
L 528.735454 136.597855 
L 529.803772 142.321514 
L 530.872089 139.459685 
L 531.940407 138.982713 
L 533.008724 130.874196 
L 534.077041 128.966309 
L 535.145359 132.782082 
L 536.213676 124.673565 
L 537.281994 135.16694 
L 538.350311 121.811735 
L 539.418629 117.995962 
L 540.486946 119.426877 
L 541.555263 131.828139 
L 542.623581 114.180189 
L 543.691898 105.117729 
L 544.760216 121.811735 
L 545.828533 112.272303 
L 546.896851 117.042019 
L 547.965168 115.611104 
L 549.033485 108.933502 
L 550.101803 109.410473 
L 551.17012 107.979558 
L 552.238438 116.565047 
L 553.306755 111.31836 
L 554.375073 110.841388 
L 555.44339 111.795331 
L 556.511707 107.025615 
L 557.580025 110.841388 
L 559.71666 99.871041 
L 560.784977 111.795331 
L 561.853295 104.640757 
L 562.921612 106.548644 
L 563.989929 107.502587 
L 565.058247 100.824984 
L 566.126564 105.5947 
L 568.263199 108.45653 
L 569.331517 100.824984 
L 570.399834 95.101325 
L 571.468152 102.732871 
L 572.536469 101.778927 
L 573.604786 97.486183 
L 574.673104 100.824984 
L 575.741421 103.686814 
L 576.809739 105.5947 
L 577.878056 108.45653 
L 578.946374 98.440126 
L 580.014691 99.871041 
L 581.083008 101.778927 
L 582.151326 107.502587 
L 583.219643 96.53224 
L 584.287961 106.071672 
L 585.356278 100.824984 
L 586.424596 98.917098 
L 587.492913 103.686814 
L 588.56123 98.440126 
L 589.629548 96.53224 
L 590.697865 103.686814 
L 591.766183 100.348013 
L 592.8345 95.101325 
L 593.902818 102.255899 
L 594.971135 100.824984 
L 596.039452 100.348013 
L 597.10777 97.009211 
L 598.176087 101.301956 
L 599.244405 99.871041 
L 600.312722 88.900694 
L 601.38104 98.917098 
L 602.449357 98.440126 
L 603.517674 99.394069 
L 604.585992 97.486183 
L 605.654309 97.963155 
L 606.722627 106.071672 
L 607.790944 93.67041 
L 608.859262 91.285552 
L 609.927579 91.285552 
L 612.064214 103.686814 
L 613.132531 94.624353 
L 614.200849 91.762524 
L 615.269166 90.331609 
L 616.337484 93.193438 
L 617.405801 97.963155 
L 618.474119 95.101325 
L 619.542436 95.101325 
L 620.610753 93.67041 
L 621.679071 96.055268 
L 622.747388 96.055268 
L 623.815706 99.871041 
L 624.884023 95.101325 
L 625.952341 93.67041 
L 627.020658 96.53224 
L 628.088975 97.963155 
L 629.157293 94.624353 
L 630.22561 93.67041 
L 631.293928 95.578297 
L 632.362245 89.854637 
L 633.430563 93.193438 
L 634.49888 96.055268 
L 635.567197 96.53224 
L 636.635515 92.716467 
L 637.703832 97.963155 
L 638.77215 94.147382 
L 639.840467 93.193438 
L 640.908785 97.963155 
L 641.977102 96.53224 
L 643.045419 92.716467 
L 644.113737 93.193438 
L 645.182054 93.193438 
L 646.250372 95.578297 
L 647.318689 95.101325 
L 648.387007 92.716467 
L 649.455324 97.009211 
L 650.523641 97.009211 
L 651.591959 91.285552 
L 652.660276 96.055268 
L 653.728594 97.963155 
L 654.796911 92.239495 
L 655.865229 95.101325 
L 656.933546 97.009211 
L 658.001863 94.624353 
L 659.070181 92.716467 
L 660.138498 91.762524 
L 661.206816 93.193438 
L 662.275133 91.762524 
L 663.343451 94.624353 
L 664.411768 94.147382 
L 665.480086 92.716467 
L 666.548403 90.80858 
L 667.61672 93.193438 
L 668.685038 90.80858 
L 669.753355 89.854637 
L 670.821673 98.440126 
L 671.88999 97.009211 
L 672.958308 92.239495 
L 674.026625 94.147382 
L 675.094942 94.147382 
L 676.16326 93.193438 
L 677.231577 91.285552 
L 680.43653 94.147382 
L 681.504847 91.762524 
L 682.573164 90.331609 
L 683.641482 97.009211 
L 684.709799 88.423722 
L 686.846434 94.147382 
L 687.914752 88.900694 
L 688.983069 93.193438 
L 690.051386 89.854637 
L 691.119704 92.239495 
L 692.188021 88.423722 
L 693.256339 93.193438 
L 694.324656 92.716467 
L 695.392974 94.147382 
L 696.461291 96.055268 
L 697.529608 92.716467 
L 698.597926 88.900694 
L 699.666243 90.80858 
L 700.734561 94.624353 
L 701.802878 92.716467 
L 702.871196 94.147382 
L 703.939513 92.716467 
L 705.00783 89.854637 
L 706.076148 89.854637 
L 707.144465 92.239495 
L 708.212783 91.285552 
L 709.2811 89.377666 
L 710.349418 88.423722 
L 711.417735 91.762524 
L 712.486053 88.900694 
L 713.55437 89.854637 
L 714.622687 88.900694 
L 715.691005 86.992808 
L 716.759322 94.147382 
L 717.82764 90.80858 
L 718.895957 88.900694 
L 719.964275 89.377666 
L 721.032592 87.469779 
L 722.100909 90.80858 
L 723.169227 88.900694 
L 724.237544 89.377666 
L 725.305862 91.285552 
L 726.374179 84.130978 
L 727.442497 80.792177 
L 728.510814 82.700063 
L 729.579131 84.130978 
L 730.647449 87.946751 
L 731.715766 85.084921 
L 732.784084 85.561893 
L 733.852401 89.377666 
L 734.920719 85.561893 
L 735.989036 85.561893 
L 737.057353 74.114574 
L 738.125671 85.084921 
L 739.193988 81.269148 
L 740.262306 82.700063 
L 741.330623 85.561893 
L 742.398941 83.654006 
L 743.467258 80.315205 
L 744.535575 81.269148 
L 745.603893 79.838233 
L 746.67221 75.545489 
L 747.740528 78.88429 
L 748.808845 69.82183 
L 749.877163 69.344858 
L 750.94548 77.453375 
L 752.013798 71.729716 
L 753.082115 76.976404 
L 754.150432 71.729716 
L 755.21875 73.160631 
L 756.287067 78.407319 
L 757.355385 71.729716 
L 758.423702 76.499432 
L 759.49202 71.729716 
L 760.560337 74.591546 
L 761.628654 75.068517 
L 762.696972 67.913943 
L 763.765289 66.96 
L 763.765289 66.96 
" clip-path="url(#p0c68d609b5)" style="fill: none; stroke: #1f77b4; stroke-width: 1.5; stroke-linecap: square"/>
   </g>
   <g id="line2d_30">
    <path d="M 487.071074 369.36 
L 488.139392 357.912681 
L 489.207709 350.281136 
L 490.276027 333.110158 
L 491.344344 321.662839 
L 492.412662 302.583975 
L 493.480979 294.952429 
L 494.549296 266.334132 
L 495.617614 241.531609 
L 497.754249 182.387129 
L 498.822566 170.939811 
L 499.890884 169.031924 
L 500.959201 155.676719 
L 502.027518 149.95306 
L 503.095836 142.321514 
L 504.164153 132.782082 
L 505.232471 125.150536 
L 506.300788 115.611104 
L 508.437423 107.979558 
L 510.574058 104.163785 
L 511.642375 104.163785 
L 512.710693 102.255899 
L 516.983962 102.255899 
L 518.05228 100.348013 
L 527.667137 100.348013 
L 528.735454 98.440126 
L 717.82764 98.440126 
L 719.964275 94.624353 
L 724.237544 94.624353 
L 725.305862 92.716467 
L 727.442497 92.716467 
L 728.510814 94.624353 
L 730.647449 94.624353 
L 731.715766 88.900694 
L 734.920719 88.900694 
L 735.989036 86.992808 
L 738.125671 86.992808 
L 740.262306 83.177035 
L 741.330623 83.177035 
L 742.398941 81.269148 
L 743.467258 83.177035 
L 746.67221 83.177035 
L 747.740528 79.361262 
L 748.808845 79.361262 
L 749.877163 77.453375 
L 755.21875 77.453375 
L 756.287067 79.361262 
L 757.355385 75.545489 
L 758.423702 79.361262 
L 759.49202 81.269148 
L 760.560337 81.269148 
L 761.628654 83.177035 
L 763.765289 83.177035 
L 763.765289 83.177035 
" clip-path="url(#p0c68d609b5)" style="fill: none; stroke: #ff7f0e; stroke-width: 1.5; stroke-linecap: square"/>
   </g>
   <g id="patch_9">
    <path d="M 473.236364 384.48 
L 473.236364 51.84 
" style="fill: none; stroke: #000000; stroke-width: 0.8; stroke-linejoin: miter; stroke-linecap: square"/>
   </g>
   <g id="patch_10">
    <path d="M 777.6 384.48 
L 777.6 51.84 
" style="fill: none; stroke: #000000; stroke-width: 0.8; stroke-linejoin: miter; stroke-linecap: square"/>
   </g>
   <g id="patch_11">
    <path d="M 473.236364 384.48 
L 777.6 384.48 
" style="fill: none; stroke: #000000; stroke-width: 0.8; stroke-linejoin: miter; stroke-linecap: square"/>
   </g>
   <g id="patch_12">
    <path d="M 473.236364 51.84 
L 777.6 51.84 
" style="fill: none; stroke: #000000; stroke-width: 0.8; stroke-linejoin: miter; stroke-linecap: square"/>
   </g>
   <g id="text_28">
    <!-- Accuracy over epochs -->
    <g transform="translate(559.430369 45.84) scale(0.12 -0.12)">
     <defs>
      <path id="DejaVuSans-41" d="M 2188 4044 
L 1331 1722 
L 3047 1722 
L 2188 4044 
z
M 1831 4666 
L 2547 4666 
L 4325 0 
L 3669 0 
L 3244 1197 
L 1141 1197 
L 716 0 
L 50 0 
L 1831 4666 
z
" transform="scale(0.015625)"/>
      <path id="DejaVuSans-75" d="M 544 1381 
L 544 3500 
L 1119 3500 
L 1119 1403 
Q 1119 906 1312 657 
Q 1506 409 1894 409 
Q 2359 409 2629 706 
Q 2900 1003 2900 1516 
L 2900 3500 
L 3475 3500 
L 3475 0 
L 2900 0 
L 2900 538 
Q 2691 219 2414 64 
Q 2138 -91 1772 -91 
Q 1169 -91 856 284 
Q 544 659 544 1381 
z
M 1991 3584 
L 1991 3584 
z
" transform="scale(0.015625)"/>
      <path id="DejaVuSans-79" d="M 2059 -325 
Q 1816 -950 1584 -1140 
Q 1353 -1331 966 -1331 
L 506 -1331 
L 506 -850 
L 844 -850 
Q 1081 -850 1212 -737 
Q 1344 -625 1503 -206 
L 1606 56 
L 191 3500 
L 800 3500 
L 1894 763 
L 2988 3500 
L 3597 3500 
L 2059 -325 
z
" transform="scale(0.015625)"/>
     </defs>
     <use xlink:href="#DejaVuSans-41"/>
     <use xlink:href="#DejaVuSans-63" transform="translate(66.658203 0)"/>
     <use xlink:href="#DejaVuSans-63" transform="translate(121.638672 0)"/>
     <use xlink:href="#DejaVuSans-75" transform="translate(176.619141 0)"/>
     <use xlink:href="#DejaVuSans-72" transform="translate(239.998047 0)"/>
     <use xlink:href="#DejaVuSans-61" transform="translate(281.111328 0)"/>
     <use xlink:href="#DejaVuSans-63" transform="translate(342.390625 0)"/>
     <use xlink:href="#DejaVuSans-79" transform="translate(397.371094 0)"/>
     <use xlink:href="#DejaVuSans-20" transform="translate(456.550781 0)"/>
     <use xlink:href="#DejaVuSans-6f" transform="translate(488.337891 0)"/>
     <use xlink:href="#DejaVuSans-76" transform="translate(549.519531 0)"/>
     <use xlink:href="#DejaVuSans-65" transform="translate(608.699219 0)"/>
     <use xlink:href="#DejaVuSans-72" transform="translate(670.222656 0)"/>
     <use xlink:href="#DejaVuSans-20" transform="translate(711.335938 0)"/>
     <use xlink:href="#DejaVuSans-65" transform="translate(743.123047 0)"/>
     <use xlink:href="#DejaVuSans-70" transform="translate(804.646484 0)"/>
     <use xlink:href="#DejaVuSans-6f" transform="translate(868.123047 0)"/>
     <use xlink:href="#DejaVuSans-63" transform="translate(929.304688 0)"/>
     <use xlink:href="#DejaVuSans-68" transform="translate(984.285156 0)"/>
     <use xlink:href="#DejaVuSans-73" transform="translate(1047.664062 0)"/>
    </g>
   </g>
   <g id="legend_2">
    <g id="patch_13">
     <path d="M 480.236364 89.19625 
L 585.058239 89.19625 
Q 587.058239 89.19625 587.058239 87.19625 
L 587.058239 58.84 
Q 587.058239 56.84 585.058239 56.84 
L 480.236364 56.84 
Q 478.236364 56.84 478.236364 58.84 
L 478.236364 87.19625 
Q 478.236364 89.19625 480.236364 89.19625 
z
" style="fill: #ffffff; opacity: 0.8; stroke: #cccccc; stroke-linejoin: miter"/>
    </g>
    <g id="line2d_31">
     <path d="M 482.236364 64.938437 
L 492.236364 64.938437 
L 502.236364 64.938437 
" style="fill: none; stroke: #1f77b4; stroke-width: 1.5; stroke-linecap: square"/>
    </g>
    <g id="text_29">
     <!-- Train Accuracy -->
     <g transform="translate(510.236364 68.438437) scale(0.1 -0.1)">
      <use xlink:href="#DejaVuSans-54"/>
      <use xlink:href="#DejaVuSans-72" transform="translate(46.333984 0)"/>
      <use xlink:href="#DejaVuSans-61" transform="translate(87.447266 0)"/>
      <use xlink:href="#DejaVuSans-69" transform="translate(148.726562 0)"/>
      <use xlink:href="#DejaVuSans-6e" transform="translate(176.509766 0)"/>
      <use xlink:href="#DejaVuSans-20" transform="translate(239.888672 0)"/>
      <use xlink:href="#DejaVuSans-41" transform="translate(271.675781 0)"/>
      <use xlink:href="#DejaVuSans-63" transform="translate(338.333984 0)"/>
      <use xlink:href="#DejaVuSans-63" transform="translate(393.314453 0)"/>
      <use xlink:href="#DejaVuSans-75" transform="translate(448.294922 0)"/>
      <use xlink:href="#DejaVuSans-72" transform="translate(511.673828 0)"/>
      <use xlink:href="#DejaVuSans-61" transform="translate(552.787109 0)"/>
      <use xlink:href="#DejaVuSans-63" transform="translate(614.066406 0)"/>
      <use xlink:href="#DejaVuSans-79" transform="translate(669.046875 0)"/>
     </g>
    </g>
    <g id="line2d_32">
     <path d="M 482.236364 79.616562 
L 492.236364 79.616562 
L 502.236364 79.616562 
" style="fill: none; stroke: #ff7f0e; stroke-width: 1.5; stroke-linecap: square"/>
    </g>
    <g id="text_30">
     <!-- Test Accuracy -->
     <g transform="translate(510.236364 83.116562) scale(0.1 -0.1)">
      <use xlink:href="#DejaVuSans-54"/>
      <use xlink:href="#DejaVuSans-65" transform="translate(44.083984 0)"/>
      <use xlink:href="#DejaVuSans-73" transform="translate(105.607422 0)"/>
      <use xlink:href="#DejaVuSans-74" transform="translate(157.707031 0)"/>
      <use xlink:href="#DejaVuSans-20" transform="translate(196.916016 0)"/>
      <use xlink:href="#DejaVuSans-41" transform="translate(228.703125 0)"/>
      <use xlink:href="#DejaVuSans-63" transform="translate(295.361328 0)"/>
      <use xlink:href="#DejaVuSans-63" transform="translate(350.341797 0)"/>
      <use xlink:href="#DejaVuSans-75" transform="translate(405.322266 0)"/>
      <use xlink:href="#DejaVuSans-72" transform="translate(468.701172 0)"/>
      <use xlink:href="#DejaVuSans-61" transform="translate(509.814453 0)"/>
      <use xlink:href="#DejaVuSans-63" transform="translate(571.09375 0)"/>
      <use xlink:href="#DejaVuSans-79" transform="translate(626.074219 0)"/>
     </g>
    </g>
   </g>
  </g>
 </g>
 <defs>
  <clipPath id="pe463b7cb04">
   <rect x="108" y="51.84" width="304.363636" height="332.64"/>
  </clipPath>
  <clipPath id="p0c68d609b5">
   <rect x="473.236364" y="51.84" width="304.363636" height="332.64"/>
  </clipPath>
 </defs>
</svg>
