<?xml version="1.0" encoding="utf-8" standalone="no"?>
<!DOCTYPE svg PUBLIC "-//W3C//DTD SVG 1.1//EN"
  "http://www.w3.org/Graphics/SVG/1.1/DTD/svg11.dtd">
<svg xmlns:xlink="http://www.w3.org/1999/xlink" width="864pt" height="432pt" viewBox="0 0 864 432" xmlns="http://www.w3.org/2000/svg" version="1.1">
 <metadata>
  <rdf:RDF xmlns:dc="http://purl.org/dc/elements/1.1/" xmlns:cc="http://creativecommons.org/ns#" xmlns:rdf="http://www.w3.org/1999/02/22-rdf-syntax-ns#">
   <cc:Work>
    <dc:type rdf:resource="http://purl.org/dc/dcmitype/StillImage"/>
    <dc:date>2025-07-07T10:37:27.469837</dc:date>
    <dc:format>image/svg+xml</dc:format>
    <dc:creator>
     <cc:Agent>
      <dc:title>Matplotlib v3.10.3, https://matplotlib.org/</dc:title>
     </cc:Agent>
    </dc:creator>
   </cc:Work>
  </rdf:RDF>
 </metadata>
 <defs>
  <style type="text/css">*{stroke-linejoin: round; stroke-linecap: butt}</style>
 </defs>
 <g id="figure_1">
  <g id="patch_1">
   <path d="M 0 432 
L 864 432 
L 864 0 
L 0 0 
z
" style="fill: #ffffff"/>
  </g>
  <g id="axes_1">
   <g id="patch_2">
    <path d="M 108 384.48 
L 412.363636 384.48 
L 412.363636 51.84 
L 108 51.84 
z
" style="fill: #ffffff"/>
   </g>
   <g id="matplotlib.axis_1">
    <g id="xtick_1">
     <g id="line2d_1">
      <defs>
       <path id="m23ca495462" d="M 0 0 
L 0 3.5 
" style="stroke: #000000; stroke-width: 0.8"/>
      </defs>
      <g>
       <use xlink:href="#m23ca495462" x="121.834711" y="384.48" style="stroke: #000000; stroke-width: 0.8"/>
      </g>
     </g>
     <g id="text_1">
      <!-- 0 -->
      <g transform="translate(118.653461 399.078438) scale(0.1 -0.1)">
       <defs>
        <path id="DejaVuSans-30" d="M 2034 4250 
Q 1547 4250 1301 3770 
Q 1056 3291 1056 2328 
Q 1056 1369 1301 889 
Q 1547 409 2034 409 
Q 2525 409 2770 889 
Q 3016 1369 3016 2328 
Q 3016 3291 2770 3770 
Q 2525 4250 2034 4250 
z
M 2034 4750 
Q 2819 4750 3233 4129 
Q 3647 3509 3647 2328 
Q 3647 1150 3233 529 
Q 2819 -91 2034 -91 
Q 1250 -91 836 529 
Q 422 1150 422 2328 
Q 422 3509 836 4129 
Q 1250 4750 2034 4750 
z
" transform="scale(0.015625)"/>
       </defs>
       <use xlink:href="#DejaVuSans-30"/>
      </g>
     </g>
    </g>
    <g id="xtick_2">
     <g id="line2d_2">
      <g>
       <use xlink:href="#m23ca495462" x="161.475716" y="384.48" style="stroke: #000000; stroke-width: 0.8"/>
      </g>
     </g>
     <g id="text_2">
      <!-- 50 -->
      <g transform="translate(155.113216 399.078438) scale(0.1 -0.1)">
       <defs>
        <path id="DejaVuSans-35" d="M 691 4666 
L 3169 4666 
L 3169 4134 
L 1269 4134 
L 1269 2991 
Q 1406 3038 1543 3061 
Q 1681 3084 1819 3084 
Q 2600 3084 3056 2656 
Q 3513 2228 3513 1497 
Q 3513 744 3044 326 
Q 2575 -91 1722 -91 
Q 1428 -91 1123 -41 
Q 819 9 494 109 
L 494 744 
Q 775 591 1075 516 
Q 1375 441 1709 441 
Q 2250 441 2565 725 
Q 2881 1009 2881 1497 
Q 2881 1984 2565 2268 
Q 2250 2553 1709 2553 
Q 1456 2553 1204 2497 
Q 953 2441 691 2322 
L 691 4666 
z
" transform="scale(0.015625)"/>
       </defs>
       <use xlink:href="#DejaVuSans-35"/>
       <use xlink:href="#DejaVuSans-30" transform="translate(63.623047 0)"/>
      </g>
     </g>
    </g>
    <g id="xtick_3">
     <g id="line2d_3">
      <g>
       <use xlink:href="#m23ca495462" x="201.116721" y="384.48" style="stroke: #000000; stroke-width: 0.8"/>
      </g>
     </g>
     <g id="text_3">
      <!-- 100 -->
      <g transform="translate(191.572971 399.078438) scale(0.1 -0.1)">
       <defs>
        <path id="DejaVuSans-31" d="M 794 531 
L 1825 531 
L 1825 4091 
L 703 3866 
L 703 4441 
L 1819 4666 
L 2450 4666 
L 2450 531 
L 3481 531 
L 3481 0 
L 794 0 
L 794 531 
z
" transform="scale(0.015625)"/>
       </defs>
       <use xlink:href="#DejaVuSans-31"/>
       <use xlink:href="#DejaVuSans-30" transform="translate(63.623047 0)"/>
       <use xlink:href="#DejaVuSans-30" transform="translate(127.246094 0)"/>
      </g>
     </g>
    </g>
    <g id="xtick_4">
     <g id="line2d_4">
      <g>
       <use xlink:href="#m23ca495462" x="240.757726" y="384.48" style="stroke: #000000; stroke-width: 0.8"/>
      </g>
     </g>
     <g id="text_4">
      <!-- 150 -->
      <g transform="translate(231.213976 399.078438) scale(0.1 -0.1)">
       <use xlink:href="#DejaVuSans-31"/>
       <use xlink:href="#DejaVuSans-35" transform="translate(63.623047 0)"/>
       <use xlink:href="#DejaVuSans-30" transform="translate(127.246094 0)"/>
      </g>
     </g>
    </g>
    <g id="xtick_5">
     <g id="line2d_5">
      <g>
       <use xlink:href="#m23ca495462" x="280.398731" y="384.48" style="stroke: #000000; stroke-width: 0.8"/>
      </g>
     </g>
     <g id="text_5">
      <!-- 200 -->
      <g transform="translate(270.854981 399.078438) scale(0.1 -0.1)">
       <defs>
        <path id="DejaVuSans-32" d="M 1228 531 
L 3431 531 
L 3431 0 
L 469 0 
L 469 531 
Q 828 903 1448 1529 
Q 2069 2156 2228 2338 
Q 2531 2678 2651 2914 
Q 2772 3150 2772 3378 
Q 2772 3750 2511 3984 
Q 2250 4219 1831 4219 
Q 1534 4219 1204 4116 
Q 875 4013 500 3803 
L 500 4441 
Q 881 4594 1212 4672 
Q 1544 4750 1819 4750 
Q 2544 4750 2975 4387 
Q 3406 4025 3406 3419 
Q 3406 3131 3298 2873 
Q 3191 2616 2906 2266 
Q 2828 2175 2409 1742 
Q 1991 1309 1228 531 
z
" transform="scale(0.015625)"/>
       </defs>
       <use xlink:href="#DejaVuSans-32"/>
       <use xlink:href="#DejaVuSans-30" transform="translate(63.623047 0)"/>
       <use xlink:href="#DejaVuSans-30" transform="translate(127.246094 0)"/>
      </g>
     </g>
    </g>
    <g id="xtick_6">
     <g id="line2d_6">
      <g>
       <use xlink:href="#m23ca495462" x="320.039736" y="384.48" style="stroke: #000000; stroke-width: 0.8"/>
      </g>
     </g>
     <g id="text_6">
      <!-- 250 -->
      <g transform="translate(310.495986 399.078438) scale(0.1 -0.1)">
       <use xlink:href="#DejaVuSans-32"/>
       <use xlink:href="#DejaVuSans-35" transform="translate(63.623047 0)"/>
       <use xlink:href="#DejaVuSans-30" transform="translate(127.246094 0)"/>
      </g>
     </g>
    </g>
    <g id="xtick_7">
     <g id="line2d_7">
      <g>
       <use xlink:href="#m23ca495462" x="359.680741" y="384.48" style="stroke: #000000; stroke-width: 0.8"/>
      </g>
     </g>
     <g id="text_7">
      <!-- 300 -->
      <g transform="translate(350.136991 399.078438) scale(0.1 -0.1)">
       <defs>
        <path id="DejaVuSans-33" d="M 2597 2516 
Q 3050 2419 3304 2112 
Q 3559 1806 3559 1356 
Q 3559 666 3084 287 
Q 2609 -91 1734 -91 
Q 1441 -91 1130 -33 
Q 819 25 488 141 
L 488 750 
Q 750 597 1062 519 
Q 1375 441 1716 441 
Q 2309 441 2620 675 
Q 2931 909 2931 1356 
Q 2931 1769 2642 2001 
Q 2353 2234 1838 2234 
L 1294 2234 
L 1294 2753 
L 1863 2753 
Q 2328 2753 2575 2939 
Q 2822 3125 2822 3475 
Q 2822 3834 2567 4026 
Q 2313 4219 1838 4219 
Q 1578 4219 1281 4162 
Q 984 4106 628 3988 
L 628 4550 
Q 988 4650 1302 4700 
Q 1616 4750 1894 4750 
Q 2613 4750 3031 4423 
Q 3450 4097 3450 3541 
Q 3450 3153 3228 2886 
Q 3006 2619 2597 2516 
z
" transform="scale(0.015625)"/>
       </defs>
       <use xlink:href="#DejaVuSans-33"/>
       <use xlink:href="#DejaVuSans-30" transform="translate(63.623047 0)"/>
       <use xlink:href="#DejaVuSans-30" transform="translate(127.246094 0)"/>
      </g>
     </g>
    </g>
    <g id="xtick_8">
     <g id="line2d_8">
      <g>
       <use xlink:href="#m23ca495462" x="399.321746" y="384.48" style="stroke: #000000; stroke-width: 0.8"/>
      </g>
     </g>
     <g id="text_8">
      <!-- 350 -->
      <g transform="translate(389.777996 399.078438) scale(0.1 -0.1)">
       <use xlink:href="#DejaVuSans-33"/>
       <use xlink:href="#DejaVuSans-35" transform="translate(63.623047 0)"/>
       <use xlink:href="#DejaVuSans-30" transform="translate(127.246094 0)"/>
      </g>
     </g>
    </g>
   </g>
   <g id="matplotlib.axis_2">
    <g id="ytick_1">
     <g id="line2d_9">
      <defs>
       <path id="m56398937b3" d="M 0 0 
L -3.5 0 
" style="stroke: #000000; stroke-width: 0.8"/>
      </defs>
      <g>
       <use xlink:href="#m56398937b3" x="108" y="377.629161" style="stroke: #000000; stroke-width: 0.8"/>
      </g>
     </g>
     <g id="text_9">
      <!-- 16 -->
      <g transform="translate(88.275 381.42838) scale(0.1 -0.1)">
       <defs>
        <path id="DejaVuSans-36" d="M 2113 2584 
Q 1688 2584 1439 2293 
Q 1191 2003 1191 1497 
Q 1191 994 1439 701 
Q 1688 409 2113 409 
Q 2538 409 2786 701 
Q 3034 994 3034 1497 
Q 3034 2003 2786 2293 
Q 2538 2584 2113 2584 
z
M 3366 4563 
L 3366 3988 
Q 3128 4100 2886 4159 
Q 2644 4219 2406 4219 
Q 1781 4219 1451 3797 
Q 1122 3375 1075 2522 
Q 1259 2794 1537 2939 
Q 1816 3084 2150 3084 
Q 2853 3084 3261 2657 
Q 3669 2231 3669 1497 
Q 3669 778 3244 343 
Q 2819 -91 2113 -91 
Q 1303 -91 875 529 
Q 447 1150 447 2328 
Q 447 3434 972 4092 
Q 1497 4750 2381 4750 
Q 2619 4750 2861 4703 
Q 3103 4656 3366 4563 
z
" transform="scale(0.015625)"/>
       </defs>
       <use xlink:href="#DejaVuSans-31"/>
       <use xlink:href="#DejaVuSans-36" transform="translate(63.623047 0)"/>
      </g>
     </g>
    </g>
    <g id="ytick_2">
     <g id="line2d_10">
      <g>
       <use xlink:href="#m56398937b3" x="108" y="325.225206" style="stroke: #000000; stroke-width: 0.8"/>
      </g>
     </g>
     <g id="text_10">
      <!-- 18 -->
      <g transform="translate(88.275 329.024425) scale(0.1 -0.1)">
       <defs>
        <path id="DejaVuSans-38" d="M 2034 2216 
Q 1584 2216 1326 1975 
Q 1069 1734 1069 1313 
Q 1069 891 1326 650 
Q 1584 409 2034 409 
Q 2484 409 2743 651 
Q 3003 894 3003 1313 
Q 3003 1734 2745 1975 
Q 2488 2216 2034 2216 
z
M 1403 2484 
Q 997 2584 770 2862 
Q 544 3141 544 3541 
Q 544 4100 942 4425 
Q 1341 4750 2034 4750 
Q 2731 4750 3128 4425 
Q 3525 4100 3525 3541 
Q 3525 3141 3298 2862 
Q 3072 2584 2669 2484 
Q 3125 2378 3379 2068 
Q 3634 1759 3634 1313 
Q 3634 634 3220 271 
Q 2806 -91 2034 -91 
Q 1263 -91 848 271 
Q 434 634 434 1313 
Q 434 1759 690 2068 
Q 947 2378 1403 2484 
z
M 1172 3481 
Q 1172 3119 1398 2916 
Q 1625 2713 2034 2713 
Q 2441 2713 2670 2916 
Q 2900 3119 2900 3481 
Q 2900 3844 2670 4047 
Q 2441 4250 2034 4250 
Q 1625 4250 1398 4047 
Q 1172 3844 1172 3481 
z
" transform="scale(0.015625)"/>
       </defs>
       <use xlink:href="#DejaVuSans-31"/>
       <use xlink:href="#DejaVuSans-38" transform="translate(63.623047 0)"/>
      </g>
     </g>
    </g>
    <g id="ytick_3">
     <g id="line2d_11">
      <g>
       <use xlink:href="#m56398937b3" x="108" y="272.821251" style="stroke: #000000; stroke-width: 0.8"/>
      </g>
     </g>
     <g id="text_11">
      <!-- 20 -->
      <g transform="translate(88.275 276.62047) scale(0.1 -0.1)">
       <use xlink:href="#DejaVuSans-32"/>
       <use xlink:href="#DejaVuSans-30" transform="translate(63.623047 0)"/>
      </g>
     </g>
    </g>
    <g id="ytick_4">
     <g id="line2d_12">
      <g>
       <use xlink:href="#m56398937b3" x="108" y="220.417296" style="stroke: #000000; stroke-width: 0.8"/>
      </g>
     </g>
     <g id="text_12">
      <!-- 22 -->
      <g transform="translate(88.275 224.216515) scale(0.1 -0.1)">
       <use xlink:href="#DejaVuSans-32"/>
       <use xlink:href="#DejaVuSans-32" transform="translate(63.623047 0)"/>
      </g>
     </g>
    </g>
    <g id="ytick_5">
     <g id="line2d_13">
      <g>
       <use xlink:href="#m56398937b3" x="108" y="168.013341" style="stroke: #000000; stroke-width: 0.8"/>
      </g>
     </g>
     <g id="text_13">
      <!-- 24 -->
      <g transform="translate(88.275 171.812559) scale(0.1 -0.1)">
       <defs>
        <path id="DejaVuSans-34" d="M 2419 4116 
L 825 1625 
L 2419 1625 
L 2419 4116 
z
M 2253 4666 
L 3047 4666 
L 3047 1625 
L 3713 1625 
L 3713 1100 
L 3047 1100 
L 3047 0 
L 2419 0 
L 2419 1100 
L 313 1100 
L 313 1709 
L 2253 4666 
z
" transform="scale(0.015625)"/>
       </defs>
       <use xlink:href="#DejaVuSans-32"/>
       <use xlink:href="#DejaVuSans-34" transform="translate(63.623047 0)"/>
      </g>
     </g>
    </g>
    <g id="ytick_6">
     <g id="line2d_14">
      <g>
       <use xlink:href="#m56398937b3" x="108" y="115.609385" style="stroke: #000000; stroke-width: 0.8"/>
      </g>
     </g>
     <g id="text_14">
      <!-- 26 -->
      <g transform="translate(88.275 119.408604) scale(0.1 -0.1)">
       <use xlink:href="#DejaVuSans-32"/>
       <use xlink:href="#DejaVuSans-36" transform="translate(63.623047 0)"/>
      </g>
     </g>
    </g>
    <g id="ytick_7">
     <g id="line2d_15">
      <g>
       <use xlink:href="#m56398937b3" x="108" y="63.20543" style="stroke: #000000; stroke-width: 0.8"/>
      </g>
     </g>
     <g id="text_15">
      <!-- 28 -->
      <g transform="translate(88.275 67.004649) scale(0.1 -0.1)">
       <use xlink:href="#DejaVuSans-32"/>
       <use xlink:href="#DejaVuSans-38" transform="translate(63.623047 0)"/>
      </g>
     </g>
    </g>
   </g>
   <g id="line2d_16">
    <path d="M 121.834711 68.21532 
L 122.627531 70.493525 
L 123.420351 67.944996 
L 124.213171 72.508375 
L 125.005991 71.512273 
L 125.798811 70.049934 
L 126.591631 71.525428 
L 127.384451 72.572698 
L 128.177272 71.734025 
L 128.970092 74.505604 
L 129.762912 73.961577 
L 130.555732 75.162709 
L 131.348552 77.172614 
L 132.141372 79.668301 
L 132.934192 77.596561 
L 134.519832 81.176722 
L 135.312652 80.596881 
L 136.105473 79.531767 
L 136.898293 82.086876 
L 137.691113 83.347338 
L 138.483933 83.231711 
L 139.276753 81.097905 
L 140.069573 84.437605 
L 140.862393 85.439906 
L 141.655213 85.369222 
L 143.240853 86.827918 
L 144.033674 85.856975 
L 144.826494 89.078251 
L 145.619314 88.304679 
L 146.412134 91.272428 
L 147.204954 89.173763 
L 147.997774 90.003934 
L 149.583414 92.622052 
L 150.376234 96.409408 
L 151.169054 91.775917 
L 151.961875 94.00565 
L 152.754695 92.817451 
L 153.547515 94.307604 
L 154.340335 93.203867 
L 155.133155 93.823127 
L 155.925975 94.639923 
L 156.718795 96.570221 
L 157.511615 96.660889 
L 158.304435 101.792149 
L 159.097255 98.857524 
L 159.890076 98.491695 
L 161.475716 102.779572 
L 162.268536 97.532765 
L 163.061356 99.673211 
L 163.854176 104.473848 
L 164.646996 98.307382 
L 165.439816 103.318374 
L 166.232636 104.270083 
L 167.025456 102.525798 
L 167.818277 104.008025 
L 168.611097 107.376673 
L 169.403917 105.423252 
L 170.196737 106.318173 
L 170.989557 106.503259 
L 171.782377 105.769238 
L 172.575197 109.258295 
L 173.368017 107.792582 
L 174.160837 108.374208 
L 174.953657 106.254016 
L 175.746478 109.278808 
L 176.539298 106.170668 
L 178.124938 108.817362 
L 178.917758 108.534308 
L 179.710578 112.663479 
L 180.503398 112.596325 
L 181.296218 109.041533 
L 182.089038 109.627125 
L 182.881858 112.429954 
L 183.674679 114.034473 
L 184.467499 111.943598 
L 185.260319 109.483253 
L 186.053139 112.773395 
L 186.845959 111.280796 
L 187.638779 113.378772 
L 188.431599 112.023527 
L 189.224419 113.64615 
L 190.017239 112.07147 
L 190.810059 117.282778 
L 191.60288 114.384511 
L 192.3957 112.163409 
L 193.18852 116.099478 
L 193.98134 116.901609 
L 194.77416 113.427247 
L 195.56698 113.938094 
L 196.3598 119.948302 
L 197.15262 116.104928 
L 197.94544 116.357617 
L 198.73826 116.927702 
L 199.531081 116.993363 
L 200.323901 117.676636 
L 201.116721 117.271621 
L 201.909541 119.689973 
L 202.702361 120.973903 
L 203.495181 117.84663 
L 204.288001 117.837581 
L 205.080821 120.202656 
L 205.873641 123.631524 
L 206.666461 118.837482 
L 207.459282 121.837228 
L 208.252102 122.089635 
L 209.044922 119.205799 
L 209.837742 122.540529 
L 210.630562 120.799751 
L 211.423382 120.208711 
L 212.216202 121.790181 
L 213.009022 121.60254 
L 213.801842 119.98183 
L 214.594662 117.689819 
L 215.387483 122.190374 
L 216.180303 124.597045 
L 216.973123 123.623898 
L 217.765943 124.560034 
L 218.558763 123.25102 
L 219.351583 123.765868 
L 220.144403 124.747305 
L 220.937223 122.856323 
L 221.730043 129.418159 
L 222.522863 126.113144 
L 223.315684 124.324551 
L 224.108504 128.706726 
L 224.901324 128.072177 
L 225.694144 126.701295 
L 226.486964 127.674449 
L 227.279784 127.273898 
L 228.072604 130.36325 
L 228.865424 134.427174 
L 229.658244 134.421099 
L 230.451064 130.822107 
L 231.243885 131.002921 
L 232.036705 128.847905 
L 232.829525 134.047234 
L 233.622345 128.129 
L 234.415165 133.532954 
L 235.207985 131.668342 
L 236.000805 129.285264 
L 236.793625 133.110553 
L 237.586445 128.83606 
L 238.379265 131.731248 
L 239.172086 133.602547 
L 239.964906 138.63004 
L 240.757726 135.088123 
L 241.550546 135.701061 
L 242.343366 136.057639 
L 243.136186 130.378632 
L 243.929006 136.252196 
L 244.721826 136.930414 
L 245.514646 130.203936 
L 246.307466 136.290724 
L 247.893107 135.018807 
L 248.685927 136.434295 
L 249.478747 137.616874 
L 250.271567 139.223576 
L 251.064387 139.589965 
L 251.857207 137.788383 
L 252.650027 144.01975 
L 253.442847 142.670737 
L 254.235667 135.513471 
L 255.028488 140.148782 
L 255.821308 138.8972 
L 256.614128 136.377923 
L 257.406948 143.52308 
L 258.199768 133.429897 
L 258.992588 139.387453 
L 259.785408 144.189057 
L 260.578228 143.224507 
L 261.371048 143.766845 
L 262.163868 138.855869 
L 262.956689 135.525139 
L 263.749509 142.983636 
L 264.542329 140.333631 
L 265.335149 138.985946 
L 266.127969 141.709867 
L 266.920789 136.201882 
L 267.713609 140.962033 
L 268.506429 144.699664 
L 269.299249 147.794449 
L 270.092069 143.214219 
L 270.88489 145.195978 
L 271.67771 144.771078 
L 272.47053 147.458453 
L 273.26335 144.070342 
L 274.05617 142.849922 
L 274.84899 144.626676 
L 275.64181 139.909327 
L 276.43463 147.139146 
L 277.22745 149.519076 
L 278.02027 145.048121 
L 278.813091 148.72688 
L 279.605911 148.387765 
L 280.398731 149.056424 
L 281.191551 146.890561 
L 281.984371 153.80034 
L 282.777191 148.500144 
L 283.570011 150.879178 
L 284.362831 154.961051 
L 285.155651 154.135682 
L 285.948471 143.619116 
L 286.741292 154.307613 
L 287.534112 149.698825 
L 288.326932 152.762905 
L 289.119752 158.709949 
L 289.912572 156.894482 
L 290.705392 152.034971 
L 291.498212 151.329089 
L 292.291032 156.867943 
L 293.083852 155.182461 
L 293.876672 160.936048 
L 294.669493 162.201567 
L 295.462313 155.978329 
L 296.255133 163.26273 
L 297.047953 163.397665 
L 297.840773 162.01842 
L 298.633593 160.252747 
L 299.426413 160.189306 
L 300.219233 168.766766 
L 301.012053 169.536938 
L 301.804873 169.58043 
L 302.597694 171.035533 
L 303.390514 174.062962 
L 304.183334 178.151585 
L 304.976154 173.693579 
L 306.561794 177.641483 
L 307.354614 184.010293 
L 308.147434 180.550009 
L 308.940254 181.951816 
L 309.733074 187.511224 
L 310.525895 183.760105 
L 311.318715 184.024889 
L 312.111535 187.882989 
L 312.904355 182.779003 
L 313.697175 192.976041 
L 314.489995 188.703606 
L 315.282815 187.318228 
L 316.075635 192.080905 
L 316.868455 198.487936 
L 317.661275 200.399385 
L 318.454096 201.606818 
L 319.246916 200.906582 
L 320.039736 202.365217 
L 320.832556 201.434497 
L 321.625376 202.522685 
L 322.418196 205.849465 
L 323.211016 212.812154 
L 324.003836 209.986942 
L 324.796656 205.028459 
L 325.589476 209.980225 
L 326.382297 218.764784 
L 327.175117 220.441326 
L 327.967937 224.447696 
L 328.760757 223.588285 
L 329.553577 219.871594 
L 330.346397 227.432676 
L 331.932037 233.688671 
L 332.724857 230.845659 
L 333.517677 240.729337 
L 334.310498 243.331906 
L 335.896138 245.470141 
L 336.688958 237.95629 
L 337.481778 248.807287 
L 338.274598 242.103549 
L 339.067418 249.937273 
L 339.860238 253.791412 
L 340.653058 261.541191 
L 341.445878 259.661153 
L 342.238699 265.226286 
L 343.031519 257.367098 
L 343.824339 259.052789 
L 344.617159 263.124669 
L 345.409979 263.469836 
L 346.202799 268.531203 
L 346.995619 276.486793 
L 347.788439 276.009544 
L 348.581259 273.479618 
L 349.374079 282.036179 
L 350.1669 279.288794 
L 350.95972 283.270183 
L 351.75254 279.32169 
L 352.54536 282.901013 
L 353.33818 294.168488 
L 354.131 286.557559 
L 354.92382 290.472277 
L 355.71664 285.136985 
L 356.50946 290.301669 
L 357.30228 291.545848 
L 358.095101 299.019637 
L 358.887921 298.662194 
L 359.680741 303.153417 
L 360.473561 297.873804 
L 361.266381 305.559752 
L 362.059201 294.175639 
L 362.852021 301.652496 
L 363.644841 306.057474 
L 364.437661 303.51799 
L 365.230481 310.084738 
L 366.023302 315.18536 
L 366.816122 310.767097 
L 367.608942 312.634504 
L 369.194582 320.768747 
L 369.987402 319.373585 
L 370.780222 331.423618 
L 371.573042 321.14683 
L 372.365862 320.96779 
L 373.158682 320.592784 
L 373.951503 323.088485 
L 374.744323 319.218761 
L 375.537143 325.732695 
L 376.329963 329.205209 
L 377.122783 326.704833 
L 377.915603 333.05942 
L 378.708423 331.106391 
L 379.501243 326.140527 
L 380.294063 339.69133 
L 381.086883 334.099132 
L 381.879704 333.331432 
L 382.672524 346.555645 
L 383.465344 336.308398 
L 384.258164 337.150646 
L 385.050984 335.705051 
L 385.843804 341.720058 
L 386.636624 338.093488 
L 387.429444 346.960119 
L 388.222264 342.487323 
L 389.015084 352.348267 
L 389.807905 350.058572 
L 390.600725 350.75147 
L 391.393545 349.489218 
L 392.186365 352.715584 
L 392.979185 353.252853 
L 393.772005 358.764388 
L 394.564825 354.041972 
L 395.357645 351.450148 
L 396.150465 362.184994 
L 396.943285 362.805057 
L 397.736106 355.162018 
L 398.528926 369.36 
L 398.528926 369.36 
" clip-path="url(#p361a55978d)" style="fill: none; stroke: #1f77b4; stroke-width: 1.5; stroke-linecap: square"/>
   </g>
   <g id="line2d_17">
    <path d="M 121.834711 66.96 
L 127.384451 73.023855 
L 131.348552 77.102901 
L 136.105473 81.568489 
L 143.240853 87.688987 
L 148.790594 92.105783 
L 151.961875 94.477149 
L 155.925975 97.177914 
L 160.682896 100.369396 
L 170.989557 106.277245 
L 175.746478 108.676137 
L 183.674679 112.335977 
L 193.98134 116.264175 
L 200.323901 118.401237 
L 213.801842 122.374963 
L 216.180303 122.977877 
L 217.765943 123.935883 
L 224.108504 127.128964 
L 228.865424 129.18278 
L 230.451064 129.880829 
L 237.586445 132.433589 
L 239.964906 133.136621 
L 243.136186 134.180881 
L 255.028488 137.176775 
L 258.992588 138.01099 
L 262.163868 138.713731 
L 265.335149 139.2652 
L 267.713609 139.69854 
L 270.88489 140.259209 
L 271.67771 140.405334 
L 272.47053 140.909176 
L 278.02027 143.411574 
L 279.605911 144.124126 
L 283.570011 145.852022 
L 285.948471 147.086177 
L 289.912572 149.30579 
L 291.498212 150.293492 
L 293.876672 151.901874 
L 294.669493 152.599593 
L 296.255133 153.760098 
L 297.047953 154.349509 
L 299.426413 156.589387 
L 301.012053 158.167908 
L 306.561794 164.707068 
L 311.318715 171.284805 
L 312.111535 172.709634 
L 316.075635 178.659588 
L 318.454096 182.851366 
L 324.796656 193.34608 
L 327.175117 197.999844 
L 327.967937 199.57927 
L 329.553577 204.460811 
L 332.724857 213.015425 
L 333.517677 214.124954 
L 334.310498 216.209865 
L 335.103318 219.433972 
L 337.481778 226.158254 
L 338.274598 228.958381 
L 339.067418 229.795445 
L 340.653058 234.694802 
L 341.445878 236.433662 
L 343.031519 241.360437 
L 343.824339 243.027986 
L 345.409979 247.329022 
L 346.202799 249.546551 
L 349.374079 256.567067 
L 350.1669 258.937058 
L 356.50946 270.610509 
L 357.30228 271.910788 
L 358.095101 272.963094 
L 360.473561 276.626627 
L 361.266381 277.404755 
L 362.059201 278.338608 
L 362.852021 279.650628 
L 363.644841 280.627073 
L 364.437661 281.390011 
L 365.230481 282.396137 
L 366.023302 282.959677 
L 366.816122 284.247229 
L 367.608942 285.006144 
L 369.194582 286.992862 
L 370.780222 288.368333 
L 371.573042 289.354513 
L 372.365862 289.943818 
L 375.537143 293.284654 
L 376.329963 293.438284 
L 377.122783 294.005877 
L 377.915603 294.921733 
L 378.708423 295.494751 
L 379.501243 295.752667 
L 380.294063 297.338635 
L 381.086883 297.985016 
L 381.879704 298.449218 
L 382.672524 299.242037 
L 383.465344 299.820201 
L 385.050984 300.55914 
L 386.636624 301.582753 
L 387.429444 301.722491 
L 388.222264 302.518571 
L 389.015084 303.783669 
L 389.807905 304.095466 
L 390.600725 305.832615 
L 391.393545 305.966072 
L 392.186365 306.837231 
L 392.979185 307.445975 
L 393.772005 307.17191 
L 394.564825 307.412631 
L 395.357645 307.511899 
L 396.150465 308.157208 
L 396.943285 309.455755 
L 397.736106 309.269396 
L 398.528926 310.971162 
L 398.528926 310.971162 
" clip-path="url(#p361a55978d)" style="fill: none; stroke: #ff7f0e; stroke-width: 1.5; stroke-linecap: square"/>
   </g>
   <g id="patch_3">
    <path d="M 108 384.48 
L 108 51.84 
" style="fill: none; stroke: #000000; stroke-width: 0.8; stroke-linejoin: miter; stroke-linecap: square"/>
   </g>
   <g id="patch_4">
    <path d="M 412.363636 384.48 
L 412.363636 51.84 
" style="fill: none; stroke: #000000; stroke-width: 0.8; stroke-linejoin: miter; stroke-linecap: square"/>
   </g>
   <g id="patch_5">
    <path d="M 108 384.48 
L 412.363636 384.48 
" style="fill: none; stroke: #000000; stroke-width: 0.8; stroke-linejoin: miter; stroke-linecap: square"/>
   </g>
   <g id="patch_6">
    <path d="M 108 51.84 
L 412.363636 51.84 
" style="fill: none; stroke: #000000; stroke-width: 0.8; stroke-linejoin: miter; stroke-linecap: square"/>
   </g>
   <g id="text_16">
    <!-- Loss over epochs -->
    <g transform="translate(208.427131 45.84) scale(0.12 -0.12)">
     <defs>
      <path id="DejaVuSans-4c" d="M 628 4666 
L 1259 4666 
L 1259 531 
L 3531 531 
L 3531 0 
L 628 0 
L 628 4666 
z
" transform="scale(0.015625)"/>
      <path id="DejaVuSans-6f" d="M 1959 3097 
Q 1497 3097 1228 2736 
Q 959 2375 959 1747 
Q 959 1119 1226 758 
Q 1494 397 1959 397 
Q 2419 397 2687 759 
Q 2956 1122 2956 1747 
Q 2956 2369 2687 2733 
Q 2419 3097 1959 3097 
z
M 1959 3584 
Q 2709 3584 3137 3096 
Q 3566 2609 3566 1747 
Q 3566 888 3137 398 
Q 2709 -91 1959 -91 
Q 1206 -91 779 398 
Q 353 888 353 1747 
Q 353 2609 779 3096 
Q 1206 3584 1959 3584 
z
" transform="scale(0.015625)"/>
      <path id="DejaVuSans-73" d="M 2834 3397 
L 2834 2853 
Q 2591 2978 2328 3040 
Q 2066 3103 1784 3103 
Q 1356 3103 1142 2972 
Q 928 2841 928 2578 
Q 928 2378 1081 2264 
Q 1234 2150 1697 2047 
L 1894 2003 
Q 2506 1872 2764 1633 
Q 3022 1394 3022 966 
Q 3022 478 2636 193 
Q 2250 -91 1575 -91 
Q 1294 -91 989 -36 
Q 684 19 347 128 
L 347 722 
Q 666 556 975 473 
Q 1284 391 1588 391 
Q 1994 391 2212 530 
Q 2431 669 2431 922 
Q 2431 1156 2273 1281 
Q 2116 1406 1581 1522 
L 1381 1569 
Q 847 1681 609 1914 
Q 372 2147 372 2553 
Q 372 3047 722 3315 
Q 1072 3584 1716 3584 
Q 2034 3584 2315 3537 
Q 2597 3491 2834 3397 
z
" transform="scale(0.015625)"/>
      <path id="DejaVuSans-20" transform="scale(0.015625)"/>
      <path id="DejaVuSans-76" d="M 191 3500 
L 800 3500 
L 1894 563 
L 2988 3500 
L 3597 3500 
L 2284 0 
L 1503 0 
L 191 3500 
z
" transform="scale(0.015625)"/>
      <path id="DejaVuSans-65" d="M 3597 1894 
L 3597 1613 
L 953 1613 
Q 991 1019 1311 708 
Q 1631 397 2203 397 
Q 2534 397 2845 478 
Q 3156 559 3463 722 
L 3463 178 
Q 3153 47 2828 -22 
Q 2503 -91 2169 -91 
Q 1331 -91 842 396 
Q 353 884 353 1716 
Q 353 2575 817 3079 
Q 1281 3584 2069 3584 
Q 2775 3584 3186 3129 
Q 3597 2675 3597 1894 
z
M 3022 2063 
Q 3016 2534 2758 2815 
Q 2500 3097 2075 3097 
Q 1594 3097 1305 2825 
Q 1016 2553 972 2059 
L 3022 2063 
z
" transform="scale(0.015625)"/>
      <path id="DejaVuSans-72" d="M 2631 2963 
Q 2534 3019 2420 3045 
Q 2306 3072 2169 3072 
Q 1681 3072 1420 2755 
Q 1159 2438 1159 1844 
L 1159 0 
L 581 0 
L 581 3500 
L 1159 3500 
L 1159 2956 
Q 1341 3275 1631 3429 
Q 1922 3584 2338 3584 
Q 2397 3584 2469 3576 
Q 2541 3569 2628 3553 
L 2631 2963 
z
" transform="scale(0.015625)"/>
      <path id="DejaVuSans-70" d="M 1159 525 
L 1159 -1331 
L 581 -1331 
L 581 3500 
L 1159 3500 
L 1159 2969 
Q 1341 3281 1617 3432 
Q 1894 3584 2278 3584 
Q 2916 3584 3314 3078 
Q 3713 2572 3713 1747 
Q 3713 922 3314 415 
Q 2916 -91 2278 -91 
Q 1894 -91 1617 61 
Q 1341 213 1159 525 
z
M 3116 1747 
Q 3116 2381 2855 2742 
Q 2594 3103 2138 3103 
Q 1681 3103 1420 2742 
Q 1159 2381 1159 1747 
Q 1159 1113 1420 752 
Q 1681 391 2138 391 
Q 2594 391 2855 752 
Q 3116 1113 3116 1747 
z
" transform="scale(0.015625)"/>
      <path id="DejaVuSans-63" d="M 3122 3366 
L 3122 2828 
Q 2878 2963 2633 3030 
Q 2388 3097 2138 3097 
Q 1578 3097 1268 2742 
Q 959 2388 959 1747 
Q 959 1106 1268 751 
Q 1578 397 2138 397 
Q 2388 397 2633 464 
Q 2878 531 3122 666 
L 3122 134 
Q 2881 22 2623 -34 
Q 2366 -91 2075 -91 
Q 1284 -91 818 406 
Q 353 903 353 1747 
Q 353 2603 823 3093 
Q 1294 3584 2113 3584 
Q 2378 3584 2631 3529 
Q 2884 3475 3122 3366 
z
" transform="scale(0.015625)"/>
      <path id="DejaVuSans-68" d="M 3513 2113 
L 3513 0 
L 2938 0 
L 2938 2094 
Q 2938 2591 2744 2837 
Q 2550 3084 2163 3084 
Q 1697 3084 1428 2787 
Q 1159 2491 1159 1978 
L 1159 0 
L 581 0 
L 581 4863 
L 1159 4863 
L 1159 2956 
Q 1366 3272 1645 3428 
Q 1925 3584 2291 3584 
Q 2894 3584 3203 3211 
Q 3513 2838 3513 2113 
z
" transform="scale(0.015625)"/>
     </defs>
     <use xlink:href="#DejaVuSans-4c"/>
     <use xlink:href="#DejaVuSans-6f" transform="translate(53.962891 0)"/>
     <use xlink:href="#DejaVuSans-73" transform="translate(115.144531 0)"/>
     <use xlink:href="#DejaVuSans-73" transform="translate(167.244141 0)"/>
     <use xlink:href="#DejaVuSans-20" transform="translate(219.34375 0)"/>
     <use xlink:href="#DejaVuSans-6f" transform="translate(251.130859 0)"/>
     <use xlink:href="#DejaVuSans-76" transform="translate(312.3125 0)"/>
     <use xlink:href="#DejaVuSans-65" transform="translate(371.492188 0)"/>
     <use xlink:href="#DejaVuSans-72" transform="translate(433.015625 0)"/>
     <use xlink:href="#DejaVuSans-20" transform="translate(474.128906 0)"/>
     <use xlink:href="#DejaVuSans-65" transform="translate(505.916016 0)"/>
     <use xlink:href="#DejaVuSans-70" transform="translate(567.439453 0)"/>
     <use xlink:href="#DejaVuSans-6f" transform="translate(630.916016 0)"/>
     <use xlink:href="#DejaVuSans-63" transform="translate(692.097656 0)"/>
     <use xlink:href="#DejaVuSans-68" transform="translate(747.078125 0)"/>
     <use xlink:href="#DejaVuSans-73" transform="translate(810.457031 0)"/>
    </g>
   </g>
   <g id="legend_1">
    <g id="patch_7">
     <path d="M 324.263636 89.19625 
L 405.363636 89.19625 
Q 407.363636 89.19625 407.363636 87.19625 
L 407.363636 58.84 
Q 407.363636 56.84 405.363636 56.84 
L 324.263636 56.84 
Q 322.263636 56.84 322.263636 58.84 
L 322.263636 87.19625 
Q 322.263636 89.19625 324.263636 89.19625 
z
" style="fill: #ffffff; opacity: 0.8; stroke: #cccccc; stroke-linejoin: miter"/>
    </g>
    <g id="line2d_18">
     <path d="M 326.263636 64.938437 
L 336.263636 64.938437 
L 346.263636 64.938437 
" style="fill: none; stroke: #1f77b4; stroke-width: 1.5; stroke-linecap: square"/>
    </g>
    <g id="text_17">
     <!-- Train Loss -->
     <g transform="translate(354.263636 68.438437) scale(0.1 -0.1)">
      <defs>
       <path id="DejaVuSans-54" d="M -19 4666 
L 3928 4666 
L 3928 4134 
L 2272 4134 
L 2272 0 
L 1638 0 
L 1638 4134 
L -19 4134 
L -19 4666 
z
" transform="scale(0.015625)"/>
       <path id="DejaVuSans-61" d="M 2194 1759 
Q 1497 1759 1228 1600 
Q 959 1441 959 1056 
Q 959 750 1161 570 
Q 1363 391 1709 391 
Q 2188 391 2477 730 
Q 2766 1069 2766 1631 
L 2766 1759 
L 2194 1759 
z
M 3341 1997 
L 3341 0 
L 2766 0 
L 2766 531 
Q 2569 213 2275 61 
Q 1981 -91 1556 -91 
Q 1019 -91 701 211 
Q 384 513 384 1019 
Q 384 1609 779 1909 
Q 1175 2209 1959 2209 
L 2766 2209 
L 2766 2266 
Q 2766 2663 2505 2880 
Q 2244 3097 1772 3097 
Q 1472 3097 1187 3025 
Q 903 2953 641 2809 
L 641 3341 
Q 956 3463 1253 3523 
Q 1550 3584 1831 3584 
Q 2591 3584 2966 3190 
Q 3341 2797 3341 1997 
z
" transform="scale(0.015625)"/>
       <path id="DejaVuSans-69" d="M 603 3500 
L 1178 3500 
L 1178 0 
L 603 0 
L 603 3500 
z
M 603 4863 
L 1178 4863 
L 1178 4134 
L 603 4134 
L 603 4863 
z
" transform="scale(0.015625)"/>
       <path id="DejaVuSans-6e" d="M 3513 2113 
L 3513 0 
L 2938 0 
L 2938 2094 
Q 2938 2591 2744 2837 
Q 2550 3084 2163 3084 
Q 1697 3084 1428 2787 
Q 1159 2491 1159 1978 
L 1159 0 
L 581 0 
L 581 3500 
L 1159 3500 
L 1159 2956 
Q 1366 3272 1645 3428 
Q 1925 3584 2291 3584 
Q 2894 3584 3203 3211 
Q 3513 2838 3513 2113 
z
" transform="scale(0.015625)"/>
      </defs>
      <use xlink:href="#DejaVuSans-54"/>
      <use xlink:href="#DejaVuSans-72" transform="translate(46.333984 0)"/>
      <use xlink:href="#DejaVuSans-61" transform="translate(87.447266 0)"/>
      <use xlink:href="#DejaVuSans-69" transform="translate(148.726562 0)"/>
      <use xlink:href="#DejaVuSans-6e" transform="translate(176.509766 0)"/>
      <use xlink:href="#DejaVuSans-20" transform="translate(239.888672 0)"/>
      <use xlink:href="#DejaVuSans-4c" transform="translate(271.675781 0)"/>
      <use xlink:href="#DejaVuSans-6f" transform="translate(325.638672 0)"/>
      <use xlink:href="#DejaVuSans-73" transform="translate(386.820312 0)"/>
      <use xlink:href="#DejaVuSans-73" transform="translate(438.919922 0)"/>
     </g>
    </g>
    <g id="line2d_19">
     <path d="M 326.263636 79.616562 
L 336.263636 79.616562 
L 346.263636 79.616562 
" style="fill: none; stroke: #ff7f0e; stroke-width: 1.5; stroke-linecap: square"/>
    </g>
    <g id="text_18">
     <!-- Test Loss -->
     <g transform="translate(354.263636 83.116562) scale(0.1 -0.1)">
      <defs>
       <path id="DejaVuSans-74" d="M 1172 4494 
L 1172 3500 
L 2356 3500 
L 2356 3053 
L 1172 3053 
L 1172 1153 
Q 1172 725 1289 603 
Q 1406 481 1766 481 
L 2356 481 
L 2356 0 
L 1766 0 
Q 1100 0 847 248 
Q 594 497 594 1153 
L 594 3053 
L 172 3053 
L 172 3500 
L 594 3500 
L 594 4494 
L 1172 4494 
z
" transform="scale(0.015625)"/>
      </defs>
      <use xlink:href="#DejaVuSans-54"/>
      <use xlink:href="#DejaVuSans-65" transform="translate(44.083984 0)"/>
      <use xlink:href="#DejaVuSans-73" transform="translate(105.607422 0)"/>
      <use xlink:href="#DejaVuSans-74" transform="translate(157.707031 0)"/>
      <use xlink:href="#DejaVuSans-20" transform="translate(196.916016 0)"/>
      <use xlink:href="#DejaVuSans-4c" transform="translate(228.703125 0)"/>
      <use xlink:href="#DejaVuSans-6f" transform="translate(282.666016 0)"/>
      <use xlink:href="#DejaVuSans-73" transform="translate(343.847656 0)"/>
      <use xlink:href="#DejaVuSans-73" transform="translate(395.947266 0)"/>
     </g>
    </g>
   </g>
  </g>
  <g id="axes_2">
   <g id="patch_8">
    <path d="M 473.236364 384.48 
L 777.6 384.48 
L 777.6 51.84 
L 473.236364 51.84 
z
" style="fill: #ffffff"/>
   </g>
   <g id="matplotlib.axis_3">
    <g id="xtick_9">
     <g id="line2d_20">
      <g>
       <use xlink:href="#m23ca495462" x="487.071074" y="384.48" style="stroke: #000000; stroke-width: 0.8"/>
      </g>
     </g>
     <g id="text_19">
      <!-- 0 -->
      <g transform="translate(483.889824 399.078438) scale(0.1 -0.1)">
       <use xlink:href="#DejaVuSans-30"/>
      </g>
     </g>
    </g>
    <g id="xtick_10">
     <g id="line2d_21">
      <g>
       <use xlink:href="#m23ca495462" x="526.712079" y="384.48" style="stroke: #000000; stroke-width: 0.8"/>
      </g>
     </g>
     <g id="text_20">
      <!-- 50 -->
      <g transform="translate(520.349579 399.078438) scale(0.1 -0.1)">
       <use xlink:href="#DejaVuSans-35"/>
       <use xlink:href="#DejaVuSans-30" transform="translate(63.623047 0)"/>
      </g>
     </g>
    </g>
    <g id="xtick_11">
     <g id="line2d_22">
      <g>
       <use xlink:href="#m23ca495462" x="566.353084" y="384.48" style="stroke: #000000; stroke-width: 0.8"/>
      </g>
     </g>
     <g id="text_21">
      <!-- 100 -->
      <g transform="translate(556.809334 399.078438) scale(0.1 -0.1)">
       <use xlink:href="#DejaVuSans-31"/>
       <use xlink:href="#DejaVuSans-30" transform="translate(63.623047 0)"/>
       <use xlink:href="#DejaVuSans-30" transform="translate(127.246094 0)"/>
      </g>
     </g>
    </g>
    <g id="xtick_12">
     <g id="line2d_23">
      <g>
       <use xlink:href="#m23ca495462" x="605.994089" y="384.48" style="stroke: #000000; stroke-width: 0.8"/>
      </g>
     </g>
     <g id="text_22">
      <!-- 150 -->
      <g transform="translate(596.450339 399.078438) scale(0.1 -0.1)">
       <use xlink:href="#DejaVuSans-31"/>
       <use xlink:href="#DejaVuSans-35" transform="translate(63.623047 0)"/>
       <use xlink:href="#DejaVuSans-30" transform="translate(127.246094 0)"/>
      </g>
     </g>
    </g>
    <g id="xtick_13">
     <g id="line2d_24">
      <g>
       <use xlink:href="#m23ca495462" x="645.635094" y="384.48" style="stroke: #000000; stroke-width: 0.8"/>
      </g>
     </g>
     <g id="text_23">
      <!-- 200 -->
      <g transform="translate(636.091344 399.078438) scale(0.1 -0.1)">
       <use xlink:href="#DejaVuSans-32"/>
       <use xlink:href="#DejaVuSans-30" transform="translate(63.623047 0)"/>
       <use xlink:href="#DejaVuSans-30" transform="translate(127.246094 0)"/>
      </g>
     </g>
    </g>
    <g id="xtick_14">
     <g id="line2d_25">
      <g>
       <use xlink:href="#m23ca495462" x="685.276099" y="384.48" style="stroke: #000000; stroke-width: 0.8"/>
      </g>
     </g>
     <g id="text_24">
      <!-- 250 -->
      <g transform="translate(675.732349 399.078438) scale(0.1 -0.1)">
       <use xlink:href="#DejaVuSans-32"/>
       <use xlink:href="#DejaVuSans-35" transform="translate(63.623047 0)"/>
       <use xlink:href="#DejaVuSans-30" transform="translate(127.246094 0)"/>
      </g>
     </g>
    </g>
    <g id="xtick_15">
     <g id="line2d_26">
      <g>
       <use xlink:href="#m23ca495462" x="724.917104" y="384.48" style="stroke: #000000; stroke-width: 0.8"/>
      </g>
     </g>
     <g id="text_25">
      <!-- 300 -->
      <g transform="translate(715.373354 399.078438) scale(0.1 -0.1)">
       <use xlink:href="#DejaVuSans-33"/>
       <use xlink:href="#DejaVuSans-30" transform="translate(63.623047 0)"/>
       <use xlink:href="#DejaVuSans-30" transform="translate(127.246094 0)"/>
      </g>
     </g>
    </g>
    <g id="xtick_16">
     <g id="line2d_27">
      <g>
       <use xlink:href="#m23ca495462" x="764.558109" y="384.48" style="stroke: #000000; stroke-width: 0.8"/>
      </g>
     </g>
     <g id="text_26">
      <!-- 350 -->
      <g transform="translate(755.014359 399.078438) scale(0.1 -0.1)">
       <use xlink:href="#DejaVuSans-33"/>
       <use xlink:href="#DejaVuSans-35" transform="translate(63.623047 0)"/>
       <use xlink:href="#DejaVuSans-30" transform="translate(127.246094 0)"/>
      </g>
     </g>
    </g>
   </g>
   <g id="matplotlib.axis_4">
    <g id="ytick_8">
     <g id="line2d_28">
      <g>
       <use xlink:href="#m56398937b3" x="473.236364" y="347.428619" style="stroke: #000000; stroke-width: 0.8"/>
      </g>
     </g>
     <g id="text_27">
      <!-- 40 -->
      <g transform="translate(453.511364 351.227838) scale(0.1 -0.1)">
       <use xlink:href="#DejaVuSans-34"/>
       <use xlink:href="#DejaVuSans-30" transform="translate(63.623047 0)"/>
      </g>
     </g>
    </g>
    <g id="ytick_9">
     <g id="line2d_29">
      <g>
       <use xlink:href="#m56398937b3" x="473.236364" y="286.695564" style="stroke: #000000; stroke-width: 0.8"/>
      </g>
     </g>
     <g id="text_28">
      <!-- 50 -->
      <g transform="translate(453.511364 290.494783) scale(0.1 -0.1)">
       <use xlink:href="#DejaVuSans-35"/>
       <use xlink:href="#DejaVuSans-30" transform="translate(63.623047 0)"/>
      </g>
     </g>
    </g>
    <g id="ytick_10">
     <g id="line2d_30">
      <g>
       <use xlink:href="#m56398937b3" x="473.236364" y="225.96251" style="stroke: #000000; stroke-width: 0.8"/>
      </g>
     </g>
     <g id="text_29">
      <!-- 60 -->
      <g transform="translate(453.511364 229.761729) scale(0.1 -0.1)">
       <use xlink:href="#DejaVuSans-36"/>
       <use xlink:href="#DejaVuSans-30" transform="translate(63.623047 0)"/>
      </g>
     </g>
    </g>
    <g id="ytick_11">
     <g id="line2d_31">
      <g>
       <use xlink:href="#m56398937b3" x="473.236364" y="165.229455" style="stroke: #000000; stroke-width: 0.8"/>
      </g>
     </g>
     <g id="text_30">
      <!-- 70 -->
      <g transform="translate(453.511364 169.028674) scale(0.1 -0.1)">
       <defs>
        <path id="DejaVuSans-37" d="M 525 4666 
L 3525 4666 
L 3525 4397 
L 1831 0 
L 1172 0 
L 2766 4134 
L 525 4134 
L 525 4666 
z
" transform="scale(0.015625)"/>
       </defs>
       <use xlink:href="#DejaVuSans-37"/>
       <use xlink:href="#DejaVuSans-30" transform="translate(63.623047 0)"/>
      </g>
     </g>
    </g>
    <g id="ytick_12">
     <g id="line2d_32">
      <g>
       <use xlink:href="#m56398937b3" x="473.236364" y="104.496401" style="stroke: #000000; stroke-width: 0.8"/>
      </g>
     </g>
     <g id="text_31">
      <!-- 80 -->
      <g transform="translate(453.511364 108.29562) scale(0.1 -0.1)">
       <use xlink:href="#DejaVuSans-38"/>
       <use xlink:href="#DejaVuSans-30" transform="translate(63.623047 0)"/>
      </g>
     </g>
    </g>
   </g>
   <g id="line2d_33">
    <path d="M 487.071074 317.905607 
L 487.863894 310.313975 
L 488.656715 326.340753 
L 489.449535 303.565858 
L 490.242355 301.878828 
L 491.035175 298.083013 
L 491.827995 292.17841 
L 492.620815 297.239498 
L 493.413635 290.069623 
L 494.206455 285.430293 
L 494.999275 277.416904 
L 495.792095 257.172552 
L 496.584916 255.063766 
L 497.377736 243.254561 
L 498.170556 262.23364 
L 498.963376 239.458745 
L 499.756196 232.28887 
L 500.549016 231.867113 
L 501.341836 239.458745 
L 502.134656 238.193473 
L 502.927476 215.418577 
L 503.720296 220.479665 
L 504.513117 221.32318 
L 505.305937 210.35749 
L 506.098757 204.452887 
L 506.891577 205.718159 
L 507.684397 199.391799 
L 508.477217 201.500586 
L 509.270037 199.391799 
L 510.062857 186.317322 
L 510.855677 182.521506 
L 511.648497 177.882176 
L 512.441318 187.160837 
L 513.234138 179.569205 
L 514.026958 177.882176 
L 514.819778 169.447029 
L 515.612598 163.120669 
L 516.405418 173.664603 
L 517.198238 171.555816 
L 517.991058 163.542427 
L 518.783878 168.603515 
L 519.576698 166.072971 
L 520.369519 165.651213 
L 521.162339 158.481339 
L 521.955159 156.79431 
L 522.747979 160.168368 
L 523.540799 152.998494 
L 524.333619 162.277155 
L 525.126439 150.46795 
L 525.919259 147.093891 
L 526.712079 148.359163 
L 527.504899 159.324854 
L 528.29772 143.719833 
L 529.09054 135.706444 
L 529.88336 150.46795 
L 530.67618 142.032803 
L 531.469 146.250377 
L 532.26182 144.985105 
L 533.05464 139.080502 
L 533.84746 139.502259 
L 534.64028 138.236987 
L 535.4331 145.828619 
L 536.225921 141.189289 
L 537.018741 140.767531 
L 537.811561 141.611046 
L 538.604381 137.393473 
L 539.397201 140.767531 
L 540.982841 131.067113 
L 541.775661 141.611046 
L 542.568481 135.284686 
L 543.361301 136.971715 
L 544.154122 137.81523 
L 544.946942 131.910628 
L 545.739762 136.128201 
L 547.325402 138.658745 
L 548.118222 131.910628 
L 548.911042 126.84954 
L 549.703862 133.597657 
L 550.496682 132.754142 
L 551.289502 128.958326 
L 552.875143 134.441172 
L 553.667963 136.128201 
L 554.460783 138.658745 
L 555.253603 129.801841 
L 556.046423 131.067113 
L 556.839243 132.754142 
L 557.632063 137.81523 
L 558.424883 128.114812 
L 559.217703 136.549958 
L 560.010524 131.910628 
L 560.803344 130.223598 
L 561.596164 134.441172 
L 562.388984 129.801841 
L 563.181804 128.114812 
L 563.974624 134.441172 
L 564.767444 131.48887 
L 565.560264 126.84954 
L 566.353084 133.1759 
L 567.145904 131.910628 
L 567.938725 131.48887 
L 568.731545 128.536569 
L 569.524365 132.332385 
L 570.317185 131.067113 
L 571.110005 121.366695 
L 571.902825 130.223598 
L 572.695645 129.801841 
L 573.488465 130.645356 
L 574.281285 128.958326 
L 575.074105 129.380084 
L 575.866926 136.549958 
L 576.659746 125.584268 
L 577.452566 123.475481 
L 578.245386 123.475481 
L 579.831026 134.441172 
L 580.623846 126.427782 
L 581.416666 123.897238 
L 582.209486 122.631967 
L 583.002306 125.16251 
L 583.795127 129.380084 
L 584.587947 126.84954 
L 585.380767 126.84954 
L 586.173587 125.584268 
L 586.966407 127.693054 
L 587.759227 127.693054 
L 588.552047 131.067113 
L 589.344867 126.84954 
L 590.137687 125.584268 
L 590.930507 128.114812 
L 591.723328 129.380084 
L 592.516148 126.427782 
L 593.308968 125.584268 
L 594.101788 127.271297 
L 594.894608 122.210209 
L 596.480248 127.693054 
L 597.273068 128.114812 
L 598.065888 124.740753 
L 598.858708 129.380084 
L 599.651529 126.006025 
L 600.444349 125.16251 
L 601.237169 129.380084 
L 602.029989 128.114812 
L 602.822809 124.740753 
L 603.615629 125.16251 
L 604.408449 125.16251 
L 605.201269 127.271297 
L 605.994089 126.84954 
L 606.786909 124.740753 
L 607.57973 128.536569 
L 608.37255 128.536569 
L 609.16537 123.475481 
L 609.95819 127.693054 
L 610.75101 129.380084 
L 611.54383 124.318996 
L 612.33665 126.84954 
L 613.12947 128.536569 
L 613.92229 126.427782 
L 614.71511 124.740753 
L 615.507931 123.897238 
L 616.300751 125.16251 
L 617.093571 123.897238 
L 617.886391 126.427782 
L 618.679211 126.006025 
L 619.472031 124.740753 
L 620.264851 123.053724 
L 621.057671 125.16251 
L 621.850491 123.053724 
L 622.643311 122.210209 
L 623.436132 129.801841 
L 624.228952 128.536569 
L 625.021772 124.318996 
L 625.814592 126.006025 
L 626.607412 126.006025 
L 627.400232 125.16251 
L 628.193052 123.475481 
L 630.571512 126.006025 
L 631.364333 123.897238 
L 632.157153 122.631967 
L 632.949973 128.536569 
L 633.742793 120.944937 
L 635.328433 126.006025 
L 636.121253 121.366695 
L 636.914073 125.16251 
L 637.706893 122.210209 
L 638.499713 124.318996 
L 639.292534 120.944937 
L 640.085354 125.16251 
L 640.878174 124.740753 
L 641.670994 126.006025 
L 642.463814 127.693054 
L 644.049454 121.366695 
L 644.842274 123.053724 
L 645.635094 126.427782 
L 646.427914 124.740753 
L 647.220735 126.006025 
L 648.013555 124.740753 
L 648.806375 122.210209 
L 649.599195 122.210209 
L 650.392015 124.318996 
L 651.184835 123.475481 
L 651.977655 121.788452 
L 652.770475 120.944937 
L 653.563295 123.897238 
L 654.356115 121.366695 
L 655.148936 122.210209 
L 655.941756 121.366695 
L 656.734576 119.679665 
L 657.527396 126.006025 
L 658.320216 123.053724 
L 659.113036 121.366695 
L 659.905856 121.788452 
L 660.698676 120.101423 
L 661.491496 123.053724 
L 662.284316 121.366695 
L 663.077137 121.788452 
L 663.869957 123.475481 
L 664.662777 117.149121 
L 665.455597 114.19682 
L 666.248417 115.883849 
L 667.041237 117.149121 
L 667.834057 120.52318 
L 668.626877 117.992636 
L 669.419697 118.414393 
L 670.212517 121.788452 
L 671.005338 118.414393 
L 671.798158 118.414393 
L 672.590978 108.292218 
L 673.383798 117.992636 
L 674.176618 114.618577 
L 674.969438 115.883849 
L 675.762258 118.414393 
L 676.555078 116.727364 
L 677.347898 113.775063 
L 678.140718 114.618577 
L 678.933539 113.353305 
L 679.726359 109.55749 
L 680.519179 112.509791 
L 681.311999 104.496402 
L 682.104819 104.074644 
L 682.897639 111.244519 
L 683.690459 106.183431 
L 684.483279 110.822762 
L 685.276099 106.183431 
L 686.068919 107.448703 
L 686.86174 112.088033 
L 687.65456 106.183431 
L 688.44738 110.401004 
L 689.2402 106.183431 
L 690.03302 108.713975 
L 690.82584 109.135732 
L 691.61866 102.809372 
L 693.2043 101.122343 
L 693.99712 105.761674 
L 694.789941 104.074644 
L 695.582761 106.183431 
L 696.375581 105.339916 
L 697.168401 100.278828 
L 697.961221 107.026946 
L 698.754041 102.809372 
L 699.546861 96.483013 
L 700.339681 103.23113 
L 701.132501 103.23113 
L 701.925321 104.496402 
L 702.718142 96.061255 
L 703.510962 103.652887 
L 704.303782 100.278828 
L 705.096602 99.435314 
L 705.889422 93.530711 
L 706.682242 94.374226 
L 707.475062 90.57841 
L 708.267882 99.435314 
L 709.060702 100.700586 
L 709.853522 107.026946 
L 710.646343 103.652887 
L 711.439163 95.639498 
L 712.231983 95.217741 
L 713.024803 99.013556 
L 713.817623 96.483013 
L 714.610443 95.217741 
L 715.403263 97.326527 
L 716.196083 89.734895 
L 716.988903 91.421925 
L 717.781723 94.374226 
L 718.574544 90.57841 
L 719.367364 94.795983 
L 720.160184 92.265439 
L 720.953004 94.374226 
L 721.745824 95.217741 
L 722.538644 94.795983 
L 723.331464 94.795983 
L 724.124284 92.687197 
L 724.917104 93.952469 
L 725.709924 92.265439 
L 726.502745 90.156653 
L 727.295565 95.639498 
L 728.088385 90.156653 
L 728.881205 82.143264 
L 729.674025 89.734895 
L 730.466845 88.891381 
L 731.259665 85.095565 
L 732.052485 88.047866 
L 732.845305 92.265439 
L 733.638125 91.843682 
L 734.430946 82.986778 
L 735.223766 81.721506 
L 736.016586 82.143264 
L 736.809406 90.156653 
L 737.602226 89.734895 
L 738.395046 83.830293 
L 739.187866 85.939079 
L 739.980686 88.469623 
L 740.773506 88.469623 
L 741.566326 90.57841 
L 743.151967 83.408536 
L 743.944787 81.299749 
L 744.737607 85.939079 
L 745.530427 82.986778 
L 747.908887 80.456234 
L 748.701707 79.190962 
L 749.494527 81.299749 
L 750.287348 85.095565 
L 751.080168 85.095565 
L 751.872988 87.204351 
L 752.665808 74.551632 
L 753.458628 80.877992 
L 754.251448 74.551632 
L 755.044268 78.769205 
L 755.837088 76.238661 
L 756.629908 83.408536 
L 757.422728 80.456234 
L 758.215549 74.551632 
L 759.008369 74.973389 
L 759.801189 80.034477 
L 760.594009 82.986778 
L 761.386829 72.864603 
L 762.179649 76.660418 
L 762.972469 84.673808 
L 763.765289 66.96 
L 763.765289 66.96 
" clip-path="url(#p5d40f6bf4c)" style="fill: none; stroke: #1f77b4; stroke-width: 1.5; stroke-linecap: square"/>
   </g>
   <g id="line2d_34">
    <path d="M 487.071074 369.36 
L 487.863894 359.237824 
L 488.656715 352.489707 
L 489.449535 337.306444 
L 490.242355 327.184268 
L 491.035175 310.313975 
L 491.827995 303.565858 
L 494.999275 204.03113 
L 495.792095 193.908954 
L 496.584916 192.221925 
L 497.377736 180.41272 
L 498.170556 175.351632 
L 498.963376 168.603515 
L 499.756196 160.168368 
L 500.549016 153.420251 
L 501.341836 144.985105 
L 502.927476 138.236987 
L 504.513117 134.862929 
L 505.305937 134.862929 
L 506.098757 133.1759 
L 509.270037 133.1759 
L 510.062857 131.48887 
L 517.198238 131.48887 
L 517.991058 129.801841 
L 658.320216 129.801841 
L 659.905856 126.427782 
L 663.077137 126.427782 
L 663.869957 124.740753 
L 665.455597 124.740753 
L 666.248417 126.427782 
L 667.834057 126.427782 
L 668.626877 121.366695 
L 671.005338 121.366695 
L 671.798158 119.679665 
L 673.383798 119.679665 
L 674.969438 116.305607 
L 675.762258 116.305607 
L 676.555078 114.618577 
L 677.347898 116.305607 
L 679.726359 116.305607 
L 680.519179 112.931548 
L 681.311999 112.931548 
L 682.104819 111.244519 
L 686.068919 111.244519 
L 686.86174 112.931548 
L 687.65456 109.55749 
L 688.44738 112.931548 
L 689.2402 114.618577 
L 690.03302 114.618577 
L 690.82584 116.305607 
L 693.2043 116.305607 
L 693.99712 119.679665 
L 695.582761 116.305607 
L 696.375581 117.992636 
L 701.132501 117.992636 
L 701.925321 119.679665 
L 702.718142 117.992636 
L 703.510962 124.740753 
L 705.096602 121.366695 
L 705.889422 123.053724 
L 706.682242 119.679665 
L 707.475062 124.740753 
L 708.267882 128.114812 
L 709.060702 126.427782 
L 709.853522 126.427782 
L 710.646343 124.740753 
L 714.610443 124.740753 
L 715.403263 123.053724 
L 716.196083 123.053724 
L 716.988903 121.366695 
L 717.781723 123.053724 
L 718.574544 123.053724 
L 719.367364 119.679665 
L 720.160184 117.992636 
L 720.953004 117.992636 
L 721.745824 116.305607 
L 722.538644 117.992636 
L 723.331464 117.992636 
L 724.124284 119.679665 
L 724.917104 116.305607 
L 726.502745 116.305607 
L 727.295565 114.618577 
L 728.088385 117.992636 
L 728.881205 124.740753 
L 729.674025 121.366695 
L 730.466845 124.740753 
L 731.259665 111.244519 
L 732.052485 121.366695 
L 732.845305 121.366695 
L 733.638125 114.618577 
L 734.430946 112.931548 
L 735.223766 119.679665 
L 736.809406 119.679665 
L 737.602226 117.992636 
L 738.395046 117.992636 
L 739.187866 121.366695 
L 739.980686 117.992636 
L 740.773506 116.305607 
L 741.566326 116.305607 
L 742.359147 117.992636 
L 743.151967 114.618577 
L 743.944787 116.305607 
L 744.737607 119.679665 
L 745.530427 116.305607 
L 746.323247 114.618577 
L 747.116067 117.992636 
L 747.908887 114.618577 
L 748.701707 112.931548 
L 749.494527 117.992636 
L 750.287348 116.305607 
L 751.080168 112.931548 
L 752.665808 112.931548 
L 753.458628 116.305607 
L 754.251448 111.244519 
L 755.044268 114.618577 
L 755.837088 111.244519 
L 756.629908 109.55749 
L 757.422728 111.244519 
L 758.215549 111.244519 
L 759.008369 116.305607 
L 759.801189 111.244519 
L 761.386829 111.244519 
L 762.179649 112.931548 
L 762.972469 111.244519 
L 763.765289 111.244519 
L 763.765289 111.244519 
" clip-path="url(#p5d40f6bf4c)" style="fill: none; stroke: #ff7f0e; stroke-width: 1.5; stroke-linecap: square"/>
   </g>
   <g id="patch_9">
    <path d="M 473.236364 384.48 
L 473.236364 51.84 
" style="fill: none; stroke: #000000; stroke-width: 0.8; stroke-linejoin: miter; stroke-linecap: square"/>
   </g>
   <g id="patch_10">
    <path d="M 777.6 384.48 
L 777.6 51.84 
" style="fill: none; stroke: #000000; stroke-width: 0.8; stroke-linejoin: miter; stroke-linecap: square"/>
   </g>
   <g id="patch_11">
    <path d="M 473.236364 384.48 
L 777.6 384.48 
" style="fill: none; stroke: #000000; stroke-width: 0.8; stroke-linejoin: miter; stroke-linecap: square"/>
   </g>
   <g id="patch_12">
    <path d="M 473.236364 51.84 
L 777.6 51.84 
" style="fill: none; stroke: #000000; stroke-width: 0.8; stroke-linejoin: miter; stroke-linecap: square"/>
   </g>
   <g id="text_32">
    <!-- Accuracy over epochs -->
    <g transform="translate(559.430369 45.84) scale(0.12 -0.12)">
     <defs>
      <path id="DejaVuSans-41" d="M 2188 4044 
L 1331 1722 
L 3047 1722 
L 2188 4044 
z
M 1831 4666 
L 2547 4666 
L 4325 0 
L 3669 0 
L 3244 1197 
L 1141 1197 
L 716 0 
L 50 0 
L 1831 4666 
z
" transform="scale(0.015625)"/>
      <path id="DejaVuSans-75" d="M 544 1381 
L 544 3500 
L 1119 3500 
L 1119 1403 
Q 1119 906 1312 657 
Q 1506 409 1894 409 
Q 2359 409 2629 706 
Q 2900 1003 2900 1516 
L 2900 3500 
L 3475 3500 
L 3475 0 
L 2900 0 
L 2900 538 
Q 2691 219 2414 64 
Q 2138 -91 1772 -91 
Q 1169 -91 856 284 
Q 544 659 544 1381 
z
M 1991 3584 
L 1991 3584 
z
" transform="scale(0.015625)"/>
      <path id="DejaVuSans-79" d="M 2059 -325 
Q 1816 -950 1584 -1140 
Q 1353 -1331 966 -1331 
L 506 -1331 
L 506 -850 
L 844 -850 
Q 1081 -850 1212 -737 
Q 1344 -625 1503 -206 
L 1606 56 
L 191 3500 
L 800 3500 
L 1894 763 
L 2988 3500 
L 3597 3500 
L 2059 -325 
z
" transform="scale(0.015625)"/>
     </defs>
     <use xlink:href="#DejaVuSans-41"/>
     <use xlink:href="#DejaVuSans-63" transform="translate(66.658203 0)"/>
     <use xlink:href="#DejaVuSans-63" transform="translate(121.638672 0)"/>
     <use xlink:href="#DejaVuSans-75" transform="translate(176.619141 0)"/>
     <use xlink:href="#DejaVuSans-72" transform="translate(239.998047 0)"/>
     <use xlink:href="#DejaVuSans-61" transform="translate(281.111328 0)"/>
     <use xlink:href="#DejaVuSans-63" transform="translate(342.390625 0)"/>
     <use xlink:href="#DejaVuSans-79" transform="translate(397.371094 0)"/>
     <use xlink:href="#DejaVuSans-20" transform="translate(456.550781 0)"/>
     <use xlink:href="#DejaVuSans-6f" transform="translate(488.337891 0)"/>
     <use xlink:href="#DejaVuSans-76" transform="translate(549.519531 0)"/>
     <use xlink:href="#DejaVuSans-65" transform="translate(608.699219 0)"/>
     <use xlink:href="#DejaVuSans-72" transform="translate(670.222656 0)"/>
     <use xlink:href="#DejaVuSans-20" transform="translate(711.335938 0)"/>
     <use xlink:href="#DejaVuSans-65" transform="translate(743.123047 0)"/>
     <use xlink:href="#DejaVuSans-70" transform="translate(804.646484 0)"/>
     <use xlink:href="#DejaVuSans-6f" transform="translate(868.123047 0)"/>
     <use xlink:href="#DejaVuSans-63" transform="translate(929.304688 0)"/>
     <use xlink:href="#DejaVuSans-68" transform="translate(984.285156 0)"/>
     <use xlink:href="#DejaVuSans-73" transform="translate(1047.664062 0)"/>
    </g>
   </g>
   <g id="legend_2">
    <g id="patch_13">
     <path d="M 480.236364 89.19625 
L 585.058239 89.19625 
Q 587.058239 89.19625 587.058239 87.19625 
L 587.058239 58.84 
Q 587.058239 56.84 585.058239 56.84 
L 480.236364 56.84 
Q 478.236364 56.84 478.236364 58.84 
L 478.236364 87.19625 
Q 478.236364 89.19625 480.236364 89.19625 
z
" style="fill: #ffffff; opacity: 0.8; stroke: #cccccc; stroke-linejoin: miter"/>
    </g>
    <g id="line2d_35">
     <path d="M 482.236364 64.938437 
L 492.236364 64.938437 
L 502.236364 64.938437 
" style="fill: none; stroke: #1f77b4; stroke-width: 1.5; stroke-linecap: square"/>
    </g>
    <g id="text_33">
     <!-- Train Accuracy -->
     <g transform="translate(510.236364 68.438437) scale(0.1 -0.1)">
      <use xlink:href="#DejaVuSans-54"/>
      <use xlink:href="#DejaVuSans-72" transform="translate(46.333984 0)"/>
      <use xlink:href="#DejaVuSans-61" transform="translate(87.447266 0)"/>
      <use xlink:href="#DejaVuSans-69" transform="translate(148.726562 0)"/>
      <use xlink:href="#DejaVuSans-6e" transform="translate(176.509766 0)"/>
      <use xlink:href="#DejaVuSans-20" transform="translate(239.888672 0)"/>
      <use xlink:href="#DejaVuSans-41" transform="translate(271.675781 0)"/>
      <use xlink:href="#DejaVuSans-63" transform="translate(338.333984 0)"/>
      <use xlink:href="#DejaVuSans-63" transform="translate(393.314453 0)"/>
      <use xlink:href="#DejaVuSans-75" transform="translate(448.294922 0)"/>
      <use xlink:href="#DejaVuSans-72" transform="translate(511.673828 0)"/>
      <use xlink:href="#DejaVuSans-61" transform="translate(552.787109 0)"/>
      <use xlink:href="#DejaVuSans-63" transform="translate(614.066406 0)"/>
      <use xlink:href="#DejaVuSans-79" transform="translate(669.046875 0)"/>
     </g>
    </g>
    <g id="line2d_36">
     <path d="M 482.236364 79.616562 
L 492.236364 79.616562 
L 502.236364 79.616562 
" style="fill: none; stroke: #ff7f0e; stroke-width: 1.5; stroke-linecap: square"/>
    </g>
    <g id="text_34">
     <!-- Test Accuracy -->
     <g transform="translate(510.236364 83.116562) scale(0.1 -0.1)">
      <use xlink:href="#DejaVuSans-54"/>
      <use xlink:href="#DejaVuSans-65" transform="translate(44.083984 0)"/>
      <use xlink:href="#DejaVuSans-73" transform="translate(105.607422 0)"/>
      <use xlink:href="#DejaVuSans-74" transform="translate(157.707031 0)"/>
      <use xlink:href="#DejaVuSans-20" transform="translate(196.916016 0)"/>
      <use xlink:href="#DejaVuSans-41" transform="translate(228.703125 0)"/>
      <use xlink:href="#DejaVuSans-63" transform="translate(295.361328 0)"/>
      <use xlink:href="#DejaVuSans-63" transform="translate(350.341797 0)"/>
      <use xlink:href="#DejaVuSans-75" transform="translate(405.322266 0)"/>
      <use xlink:href="#DejaVuSans-72" transform="translate(468.701172 0)"/>
      <use xlink:href="#DejaVuSans-61" transform="translate(509.814453 0)"/>
      <use xlink:href="#DejaVuSans-63" transform="translate(571.09375 0)"/>
      <use xlink:href="#DejaVuSans-79" transform="translate(626.074219 0)"/>
     </g>
    </g>
   </g>
  </g>
 </g>
 <defs>
  <clipPath id="p361a55978d">
   <rect x="108" y="51.84" width="304.363636" height="332.64"/>
  </clipPath>
  <clipPath id="p5d40f6bf4c">
   <rect x="473.236364" y="51.84" width="304.363636" height="332.64"/>
  </clipPath>
 </defs>
</svg>
